<svg version="1.1" xmlns="http://www.w3.org/2000/svg" xmlns:xlink="http://www.w3.org/1999/xlink" width="842.2314453125" height="842"><defs/><g><g transform="translate(-38,10) scale(1,1)"><rect fill="#C0C0C0" stroke="none" x="383" y="7" width="163.9970703125" height="288" opacity="0.2"/></g><g transform="translate(-38,10) scale(1,1)"><rect fill="#ffffff" stroke="none" x="376" y="0" width="163.9970703125" height="288"/></g><g transform="translate(-38,10) scale(1,1)"><path fill="none" stroke="#000000" d="M 376 0 L 539.9970703125 0 L 539.9970703125 288 L 376 288 L 376 0 Z Z" stroke-miterlimit="10"/></g><g transform="translate(-38,10) scale(1,1)"><path fill="none" stroke="#000000" d="M 376 25 L 539.9970703125 25" stroke-miterlimit="10"/></g><g transform="translate(-38,10) scale(1,1)"><path fill="none" stroke="#000000" d="M 376 78 L 539.9970703125 78" stroke-miterlimit="10"/></g><g transform="translate(-38,10) scale(1,1)"><g><path fill="none" stroke="none"/><text fill="#000000" stroke="none" font-family="Arial" font-size="13px" font-style="normal" font-weight="bold" text-decoration="none" x="424.40673828125" y="18">Simulateur</text></g></g><g transform="translate(-38,10) scale(1,1)"><g><path fill="none" stroke="none"/><text fill="#000000" stroke="none" font-family="Arial" font-size="13px" font-style="normal" font-weight="normal" text-decoration="none" x="381" y="41">+vitesseSimu</text></g></g><g transform="translate(-38,10) scale(1,1)"><g><path fill="none" stroke="none"/><text fill="#000000" stroke="none" font-family="Arial" font-size="13px" font-style="normal" font-weight="normal" text-decoration="none" x="381" y="56">+listeFeu</text></g></g><g transform="translate(-38,10) scale(1,1)"><g><path fill="none" stroke="none"/><text fill="#000000" stroke="none" font-family="Arial" font-size="13px" font-style="normal" font-weight="normal" text-decoration="none" x="381" y="71">+listeRobot</text></g></g><g transform="translate(-38,10) scale(1,1)"><g><path fill="none" stroke="none"/><text fill="#000000" stroke="none" font-family="Arial" font-size="13px" font-style="normal" font-weight="normal" text-decoration="none" x="381" y="94">+lancerSimulateur()</text></g></g><g transform="translate(-38,10) scale(1,1)"><g><path fill="none" stroke="none"/><text fill="#000000" stroke="none" font-family="Arial" font-size="13px" font-style="normal" font-weight="normal" text-decoration="none" x="381" y="109">+ajouterFeu()</text></g></g><g transform="translate(-38,10) scale(1,1)"><g><path fill="none" stroke="none"/><text fill="#000000" stroke="none" font-family="Arial" font-size="13px" font-style="normal" font-weight="normal" text-decoration="none" x="381" y="124">+ajouterRobot()</text></g></g><g transform="translate(-38,10) scale(1,1)"><g><path fill="none" stroke="none"/><text fill="#000000" stroke="none" font-family="Arial" font-size="13px" font-style="normal" font-weight="normal" text-decoration="none" x="381" y="139">+lireCarte()</text></g></g><g transform="translate(-38,10) scale(1,1)"><g><path fill="none" stroke="none"/><text fill="#000000" stroke="none" font-family="Arial" font-size="13px" font-style="normal" font-weight="normal" text-decoration="none" x="381" y="154">+excecuterSimulation()</text></g></g><g transform="translate(-38,10) scale(1,1)"><g><path fill="none" stroke="none"/><text fill="#000000" stroke="none" font-family="Arial" font-size="13px" font-style="normal" font-weight="normal" text-decoration="none" x="381" y="169">+arreterSimulation()</text></g></g><g transform="translate(-38,10) scale(1,1)"><g><path fill="none" stroke="none"/><text fill="#000000" stroke="none" font-family="Arial" font-size="13px" font-style="normal" font-weight="normal" text-decoration="none" x="381" y="184">+reprendreSimulation()</text></g></g><g transform="translate(-38,10) scale(1,1)"><g><path fill="none" stroke="none"/><text fill="#000000" stroke="none" font-family="Arial" font-size="13px" font-style="normal" font-weight="normal" text-decoration="none" x="381" y="199">+reinitialiserSimulation()</text></g></g><g transform="translate(-38,10) scale(1,1)"><g><path fill="none" stroke="none"/><text fill="#000000" stroke="none" font-family="Arial" font-size="13px" font-style="normal" font-weight="normal" text-decoration="none" x="381" y="214">+pauseSimulation()</text></g></g><g transform="translate(-38,10) scale(1,1)"><g><path fill="none" stroke="none"/><text fill="#000000" stroke="none" font-family="Arial" font-size="13px" font-style="normal" font-weight="normal" text-decoration="none" x="381" y="229">+accelererSimu()</text></g></g><g transform="translate(-38,10) scale(1,1)"><g><path fill="none" stroke="none"/><text fill="#000000" stroke="none" font-family="Arial" font-size="13px" font-style="normal" font-weight="normal" text-decoration="none" x="381" y="244">+ralentirSimu()</text></g></g><g transform="translate(-38,10) scale(1,1)"><g><path fill="none" stroke="none"/><text fill="#000000" stroke="none" font-family="Arial" font-size="13px" font-style="normal" font-weight="normal" text-decoration="none" x="381" y="259">+retirerFeu(idFeu)</text></g></g><g transform="translate(-38,10) scale(1,1)"><g><path fill="none" stroke="none"/><text fill="#000000" stroke="none" font-family="Arial" font-size="13px" font-style="normal" font-weight="normal" text-decoration="none" x="381" y="274">+detecterFinSimu()</text></g></g><g transform="translate(-38,10) scale(1,1)"><rect fill="#C0C0C0" stroke="none" x="55" y="319" width="106.919921875" height="87" opacity="0.2"/></g><g transform="translate(-38,10) scale(1,1)"><rect fill="#ffffff" stroke="none" x="48" y="312" width="106.919921875" height="87"/></g><g transform="translate(-38,10) scale(1,1)"><path fill="none" stroke="#000000" d="M 48 312 L 154.919921875 312 L 154.919921875 399 L 48 399 L 48 312 Z Z" stroke-miterlimit="10"/></g><g transform="translate(-38,10) scale(1,1)"><path fill="none" stroke="#000000" d="M 48 337 L 154.919921875 337" stroke-miterlimit="10"/></g><g transform="translate(-38,10) scale(1,1)"><path fill="none" stroke="#000000" d="M 48 375 L 154.919921875 375" stroke-miterlimit="10"/></g><g transform="translate(-38,10) scale(1,1)"><g><path fill="none" stroke="none"/><text fill="#000000" stroke="none" font-family="Arial" font-size="13px" font-style="normal" font-weight="bold" text-decoration="none" x="84.841796875" y="330">Carte</text></g></g><g transform="translate(-38,10) scale(1,1)"><g><path fill="none" stroke="none"/><text fill="#000000" stroke="none" font-family="Arial" font-size="13px" font-style="normal" font-weight="normal" text-decoration="none" x="53" y="352">+repere</text></g></g><g transform="translate(-38,10) scale(1,1)"><g><path fill="none" stroke="none"/><text fill="#000000" stroke="none" font-family="Arial" font-size="13px" font-style="normal" font-weight="normal" text-decoration="none" x="53" y="368">+taille</text></g></g><g transform="translate(-38,10) scale(1,1)"><g><path fill="none" stroke="none"/><text fill="#000000" stroke="none" font-family="Arial" font-size="13px" font-style="normal" font-weight="normal" text-decoration="none" x="53" y="393">+chargerCarte()</text></g></g><g transform="translate(-38,10) scale(1,1)"><rect fill="#C0C0C0" stroke="none" x="375" y="399" width="123.51171875" height="100" opacity="0.2"/></g><g transform="translate(-38,10) scale(1,1)"><rect fill="#ffffff" stroke="none" x="368" y="392" width="123.51171875" height="100"/></g><g transform="translate(-38,10) scale(1,1)"><path fill="none" stroke="#000000" d="M 368 392 L 491.51171875 392 L 491.51171875 492 L 368 492 L 368 392 Z Z" stroke-miterlimit="10"/></g><g transform="translate(-38,10) scale(1,1)"><path fill="none" stroke="#000000" d="M 368 417 L 491.51171875 417" stroke-miterlimit="10"/></g><g transform="translate(-38,10) scale(1,1)"><path fill="none" stroke="#000000" d="M 368 455 L 491.51171875 455" stroke-miterlimit="10"/></g><g transform="translate(-38,10) scale(1,1)"><g><path fill="none" stroke="none"/><text fill="#000000" stroke="none" font-family="Arial" font-size="13px" font-style="normal" font-weight="bold" text-decoration="none" x="403.02587890625" y="410">Manager</text></g></g><g transform="translate(-38,10) scale(1,1)"><g><path fill="none" stroke="none"/><text fill="#000000" stroke="none" font-family="Arial" font-size="13px" font-style="normal" font-weight="normal" text-decoration="none" x="373" y="433">+liste_robot</text></g></g><g transform="translate(-38,10) scale(1,1)"><g><path fill="none" stroke="none"/><text fill="#000000" stroke="none" font-family="Arial" font-size="13px" font-style="normal" font-weight="normal" text-decoration="none" x="373" y="448">+liste_feu</text></g></g><g transform="translate(-38,10) scale(1,1)"><g><path fill="none" stroke="none"/><text fill="#000000" stroke="none" font-family="Arial" font-size="13px" font-style="normal" font-weight="normal" text-decoration="none" x="373" y="471">+affecterRobot()</text></g></g><g transform="translate(-38,10) scale(1,1)"><g><path fill="none" stroke="none"/><text fill="#000000" stroke="none" font-family="Arial" font-size="13px" font-style="normal" font-weight="normal" text-decoration="none" x="373" y="486">+assignerRobot()</text></g></g><g transform="translate(-38,10) scale(1,1)"><rect fill="#C0C0C0" stroke="none" x="199" y="535" width="106.90625" height="115" opacity="0.2"/></g><g transform="translate(-38,10) scale(1,1)"><rect fill="#ffffff" stroke="none" x="192" y="528" width="106.90625" height="115"/></g><g transform="translate(-38,10) scale(1,1)"><path fill="none" stroke="#000000" d="M 192 528 L 298.90625 528 L 298.90625 643 L 192 643 L 192 528 Z Z" stroke-miterlimit="10"/></g><g transform="translate(-38,10) scale(1,1)"><path fill="none" stroke="#000000" d="M 192 553 L 298.90625 553" stroke-miterlimit="10"/></g><g transform="translate(-38,10) scale(1,1)"><path fill="none" stroke="#000000" d="M 192 606 L 298.90625 606" stroke-miterlimit="10"/></g><g transform="translate(-38,10) scale(1,1)"><g><path fill="none" stroke="none"/><text fill="#000000" stroke="none" font-family="Arial" font-size="13px" font-style="normal" font-weight="bold" text-decoration="none" x="233.897216796875" y="546">Feu</text></g></g><g transform="translate(-38,10) scale(1,1)"><g><path fill="none" stroke="none"/><text fill="#000000" stroke="none" font-family="Arial" font-size="13px" font-style="normal" font-weight="normal" text-decoration="none" x="197" y="569">+idFeu</text></g></g><g transform="translate(-38,10) scale(1,1)"><g><path fill="none" stroke="none"/><text fill="#000000" stroke="none" font-family="Arial" font-size="13px" font-style="normal" font-weight="normal" text-decoration="none" x="197" y="584">+ampleur</text></g></g><g transform="translate(-38,10) scale(1,1)"><g><path fill="none" stroke="none"/><text fill="#000000" stroke="none" font-family="Arial" font-size="13px" font-style="normal" font-weight="normal" text-decoration="none" x="197" y="599">+coordonnees</text></g></g><g transform="translate(-38,10) scale(1,1)"><g><path fill="none" stroke="none"/><text fill="#000000" stroke="none" font-family="Arial" font-size="13px" font-style="normal" font-weight="normal" text-decoration="none" x="197" y="622">+seDeclencher()</text></g></g><g transform="translate(-38,10) scale(1,1)"><g><path fill="none" stroke="none"/><text fill="#000000" stroke="none" font-family="Arial" font-size="13px" font-style="normal" font-weight="normal" text-decoration="none" x="197" y="637">+eteindre()</text></g></g><g transform="translate(-38,10) scale(1,1)"><rect fill="#C0C0C0" stroke="none" x="607" y="519" width="270.2314453125" height="310" opacity="0.2"/></g><g transform="translate(-38,10) scale(1,1)"><rect fill="#ffffff" stroke="none" x="600" y="512" width="270.2314453125" height="310"/></g><g transform="translate(-38,10) scale(1,1)"><path fill="none" stroke="#000000" d="M 600 512 L 870.2314453125 512 L 870.2314453125 822 L 600 822 L 600 512 Z Z" stroke-miterlimit="10"/></g><g transform="translate(-38,10) scale(1,1)"><path fill="none" stroke="#000000" d="M 600 537 L 870.2314453125 537" stroke-miterlimit="10"/></g><g transform="translate(-38,10) scale(1,1)"><path fill="none" stroke="#000000" d="M 600 665 L 870.2314453125 665" stroke-miterlimit="10"/></g><g transform="translate(-38,10) scale(1,1)"><g><path fill="none" stroke="none"/><text fill="#000000" stroke="none" font-family="Arial" font-size="13px" font-style="normal" font-weight="bold" text-decoration="none" x="716.345703125" y="530">Robot</text></g></g><g transform="translate(-38,10) scale(1,1)"><g><path fill="none" stroke="none"/><text fill="#000000" stroke="none" font-family="Arial" font-size="13px" font-style="normal" font-weight="normal" text-decoration="none" x="605" y="553">+idRobot</text></g></g><g transform="translate(-38,10) scale(1,1)"><g><path fill="none" stroke="none"/><text fill="#000000" stroke="none" font-family="Arial" font-size="13px" font-style="normal" font-weight="normal" text-decoration="none" x="605" y="568">+Type</text></g></g><g transform="translate(-38,10) scale(1,1)"><g><path fill="none" stroke="none"/><text fill="#000000" stroke="none" font-family="Arial" font-size="13px" font-style="normal" font-weight="normal" text-decoration="none" x="605" y="582">+nom</text></g></g><g transform="translate(-38,10) scale(1,1)"><g><path fill="none" stroke="none"/><text fill="#000000" stroke="none" font-family="Arial" font-size="13px" font-style="normal" font-weight="normal" text-decoration="none" x="605" y="598">+vitesse</text></g></g><g transform="translate(-38,10) scale(1,1)"><g><path fill="none" stroke="none"/><text fill="#000000" stroke="none" font-family="Arial" font-size="13px" font-style="normal" font-weight="normal" text-decoration="none" x="605" y="613">+coordonnees</text></g></g><g transform="translate(-38,10) scale(1,1)"><g><path fill="none" stroke="none"/><text fill="#000000" stroke="none" font-family="Arial" font-size="13px" font-style="normal" font-weight="normal" text-decoration="none" x="605" y="628">+robotDispo</text></g></g><g transform="translate(-38,10) scale(1,1)"><g><path fill="none" stroke="none"/><text fill="#000000" stroke="none" font-family="Arial" font-size="13px" font-style="normal" font-weight="normal" text-decoration="none" x="605" y="642.5">+etat</text></g></g><g transform="translate(-38,10) scale(1,1)"><g><path fill="none" stroke="none"/><text fill="#000000" stroke="none" font-family="Arial" font-size="13px" font-style="normal" font-weight="normal" text-decoration="none" x="605" y="658">+etatEau</text></g></g><g transform="translate(-38,10) scale(1,1)"><g><path fill="none" stroke="none"/><text fill="#000000" stroke="none" font-family="Arial" font-size="13px" font-style="normal" font-weight="normal" text-decoration="none" x="605" y="681">+eteindreFeu(coordonneesFeu, ampleurFeu)</text></g></g><g transform="translate(-38,10) scale(1,1)"><g><path fill="none" stroke="none"/><text fill="#000000" stroke="none" font-family="Arial" font-size="13px" font-style="normal" font-weight="normal" text-decoration="none" x="605" y="696">+calculerDistance(coordonneesFeu)</text></g></g><g transform="translate(-38,10) scale(1,1)"><g><path fill="none" stroke="none"/><text fill="#000000" stroke="none" font-family="Arial" font-size="13px" font-style="normal" font-weight="normal" text-decoration="none" x="605" y="711">+seDeplacer(coordonnees)</text></g></g><g transform="translate(-38,10) scale(1,1)"><g><path fill="none" stroke="none"/><text fill="#000000" stroke="none" font-family="Arial" font-size="13px" font-style="normal" font-weight="normal" text-decoration="none" x="605" y="726">+remplirReservoir()</text></g></g><g transform="translate(-38,10) scale(1,1)"><g><path fill="none" stroke="none"/><text fill="#000000" stroke="none" font-family="Arial" font-size="13px" font-style="normal" font-weight="normal" text-decoration="none" x="605" y="741">+getCoordonneesRobot()</text></g></g><g transform="translate(-38,10) scale(1,1)"><g><path fill="none" stroke="none"/><text fill="#000000" stroke="none" font-family="Arial" font-size="13px" font-style="normal" font-weight="normal" text-decoration="none" x="605" y="756">+setVitesse(vitesse)</text></g></g><g transform="translate(-38,10) scale(1,1)"><g><path fill="none" stroke="none"/><text fill="#000000" stroke="none" font-family="Arial" font-size="13px" font-style="normal" font-weight="normal" text-decoration="none" x="605" y="771">+getEtat()</text></g></g><g transform="translate(-38,10) scale(1,1)"><g><path fill="none" stroke="none"/><text fill="#000000" stroke="none" font-family="Arial" font-size="13px" font-style="normal" font-weight="normal" text-decoration="none" x="605" y="786">+assignerFeu()</text></g></g><g transform="translate(-38,10) scale(1,1)"><g><path fill="none" stroke="none"/><text fill="#000000" stroke="none" font-family="Arial" font-size="13px" font-style="normal" font-weight="normal" text-decoration="none" x="605" y="801">+mae()</text></g></g><g transform="translate(-38,10) scale(1,1)"><g><path fill="none" stroke="none"/><text fill="#000000" stroke="none" font-family="Arial" font-size="13px" font-style="normal" font-weight="normal" text-decoration="none" x="605" y="816">+test_arriverFeu()</text></g></g><g transform="translate(-38,10) scale(1,1)"><path fill="none" stroke="#000000" d="M 443 289 L 434 391" stroke-miterlimit="10"/></g><g transform="translate(-38,10) scale(1,1)"><g><path fill="none" stroke="none"/><text fill="#000000" stroke="none" font-family="Arial" font-size="13px" font-style="normal" font-weight="normal" text-decoration="none" x="446.5" y="307">+1</text></g></g><g transform="translate(-38,10) scale(1,1)"><g><path fill="none" stroke="none"/><text fill="#000000" stroke="none" font-family="Arial" font-size="13px" font-style="normal" font-weight="normal" text-decoration="none" x="438.5" y="379">+1</text></g></g><g transform="translate(-38,10) scale(1,1)"><path fill="none" stroke="#000000" d="M 493 489 L 599 567" stroke-miterlimit="10"/></g><g transform="translate(-38,10) scale(1,1)"><path fill="none" stroke="#000000" d="M 588.31969994043 564.3672845505921 L 599 567 L 593.3094983499819 557.5862764555601" stroke-miterlimit="10"/></g><g transform="translate(-38,10) scale(1,1)"><g><path fill="none" stroke="none"/><text fill="#000000" stroke="none" font-family="Arial" font-size="13px" font-style="normal" font-weight="normal" text-decoration="none" x="561.5" y="546">+0..n</text></g></g><g transform="translate(-38,10) scale(1,1)"><g><path fill="none" stroke="none"/><text fill="#000000" stroke="none" font-family="Arial" font-size="13px" font-style="normal" font-weight="normal" text-decoration="none" x="514.5" y="497">+1</text></g></g><g transform="translate(-38,10) scale(1,1)"><path fill="none" stroke="#000000" d="M 367 490 L 300 542" stroke-miterlimit="10"/></g><g transform="translate(-38,10) scale(1,1)"><path fill="none" stroke="#000000" d="M 305.4474214946378 532.443557196333 L 300 542 L 310.60933418933405 539.0944831683455" stroke-miterlimit="10"/></g><g transform="translate(-38,10) scale(1,1)"><g><path fill="none" stroke="none"/><text fill="#000000" stroke="none" font-family="Arial" font-size="13px" font-style="normal" font-weight="normal" text-decoration="none" x="308.5" y="544">+0..n</text></g></g><g transform="translate(-38,10) scale(1,1)"><g><path fill="none" stroke="none"/><text fill="#000000" stroke="none" font-family="Arial" font-size="13px" font-style="normal" font-weight="normal" text-decoration="none" x="366.5" y="507">+1</text></g></g><g transform="translate(-38,10) scale(1,1)"><path fill="none" stroke="#000000" d="M 599 644 L 300 594" stroke-miterlimit="10"/></g><g transform="translate(-38,10) scale(1,1)"><path fill="none" stroke="#000000" d="M 310.7177853304548 591.5243026012276 L 300 594 L 309.32920110530415 599.8280362676284" stroke-miterlimit="10"/></g><g transform="translate(-38,10) scale(1,1)"><g><path fill="none" stroke="none"/><text fill="#000000" stroke="none" font-family="Arial" font-size="13px" font-style="normal" font-weight="normal" text-decoration="none" x="562.5" y="656">+1..n</text></g></g><g transform="translate(-38,10) scale(1,1)"><g><path fill="none" stroke="none"/><text fill="#000000" stroke="none" font-family="Arial" font-size="13px" font-style="normal" font-weight="normal" text-decoration="none" x="315.5" y="618">+1</text></g></g><g transform="translate(-38,10) scale(1,1)"><path fill="none" stroke="#000000" d="M 387 289 L 273 527" stroke-miterlimit="10"/></g><g transform="translate(-38,10) scale(1,1)"><path fill="none" stroke="#000000" d="M 273.5937223145454 516.0160346953747 L 273 527 L 281.1866614259751 519.6529887235386" stroke-miterlimit="10"/></g><g transform="translate(-38,10) scale(1,1)"><g><path fill="none" stroke="none"/><text fill="#000000" stroke="none" font-family="Arial" font-size="13px" font-style="normal" font-weight="normal" text-decoration="none" x="284.5" y="519">+0..n</text></g></g><g transform="translate(-38,10) scale(1,1)"><g><path fill="none" stroke="none"/><text fill="#000000" stroke="none" font-family="Arial" font-size="13px" font-style="normal" font-weight="normal" text-decoration="none" x="381.5" y="323">+1</text></g></g><g transform="translate(-38,10) scale(1,1)"><path fill="none" stroke="#000000" d="M 534 289 L 652 511" stroke-miterlimit="10"/></g><g transform="translate(-38,10) scale(1,1)"><path fill="none" stroke="#000000" d="M 643.5131001326766 504.0019623720626 L 652 511 L 650.9472154142776 500.05049569085133" stroke-miterlimit="10"/></g><g transform="translate(-38,10) scale(1,1)"><g><path fill="none" stroke="none"/><text fill="#000000" stroke="none" font-family="Arial" font-size="13px" font-style="normal" font-weight="normal" text-decoration="none" x="647.5" y="490">+0..n</text></g></g><g transform="translate(-38,10) scale(1,1)"><g><path fill="none" stroke="none"/><text fill="#000000" stroke="none" font-family="Arial" font-size="13px" font-style="normal" font-weight="normal" text-decoration="none" x="551.5" y="309">+1</text></g></g><g transform="translate(-38,10) scale(1,1)"><path fill="none" stroke="#000000" d="M 375 193 L 156 322" stroke-miterlimit="10"/></g><g transform="translate(-38,10) scale(1,1)"><path fill="none" stroke="#000000" d="M 162.61999082446152 313.2150286577562 L 156 322 L 166.89295321199955 320.46912759473935" stroke-miterlimit="10"/></g><g transform="translate(-38,10) scale(1,1)"><g><path fill="none" stroke="none"/><text fill="#000000" stroke="none" font-family="Arial" font-size="13px" font-style="normal" font-weight="normal" text-decoration="none" x="342.5" y="195">+1</text></g></g><g transform="translate(-38,10) scale(1,1)"><g><path fill="none" stroke="none"/><text fill="#000000" stroke="none" font-family="Arial" font-size="13px" font-style="normal" font-weight="normal" text-decoration="none" x="150.726806640625" y="299">+1</text></g></g><g transform="translate(-38,10) scale(1,1)"><path fill="none" stroke="#000000" d="M 599 707 L 448 752 L 104 744 L 101 400" stroke-miterlimit="10"/></g><g transform="translate(-38,10) scale(1,1)"><path fill="none" stroke="#000000" d="M 105.29798229681896 410.1255789057333 L 101 400 L 96.87926691981696 410.1989979351839" stroke-miterlimit="10"/></g><g transform="translate(-38,10) scale(1,1)"><g><path fill="none" stroke="none"/><text fill="#000000" stroke="none" font-family="Arial" font-size="13px" font-style="normal" font-weight="normal" text-decoration="none" x="563.5" y="733">+0..n</text></g></g><g transform="translate(-38,10) scale(1,1)"><g><path fill="none" stroke="none"/><text fill="#000000" stroke="none" font-family="Arial" font-size="13px" font-style="normal" font-weight="normal" text-decoration="none" x="78.5" y="431">+1</text></g></g><g transform="translate(-38,10) scale(1,1)"><path fill="none" stroke="#000000" d="M 209 527 L 129 400" stroke-miterlimit="10"/></g><g transform="translate(-38,10) scale(1,1)"><path fill="none" stroke="#000000" d="M 137.97836742834664 406.3552276372766 L 129 400 L 130.8548399342659 410.84248905087077" stroke-miterlimit="10"/></g><g transform="translate(-38,10) scale(1,1)"><g><path fill="none" stroke="none"/><text fill="#000000" stroke="none" font-family="Arial" font-size="13px" font-style="normal" font-weight="normal" text-decoration="none" x="207.5" y="514">+0..n</text></g></g><g transform="translate(-38,10) scale(1,1)"><g><path fill="none" stroke="none"/><text fill="#000000" stroke="none" font-family="Arial" font-size="13px" font-style="normal" font-weight="normal" text-decoration="none" x="142.5" y="418">+1</text></g></g></g></svg>