<svg version="1.1" xmlns="http://www.w3.org/2000/svg" xmlns:xlink="http://www.w3.org/1999/xlink" width="1372" height="1204"><defs/><g><g transform="translate(10,-14) scale(1,1)"><path fill="none" stroke="#000000" d="M 0 24 L 1352 24 L 1352 1208 L 0 1208 L 0 24" stroke-miterlimit="10"/></g><g transform="translate(10,-14) scale(1,1)"><path fill="#ffffff" stroke="none" d="M 0 24 L 0 46 L 180.7470703125 46 L 191.7470703125 35 L 191.7470703125 24 L 0 24"/></g><g transform="translate(10,-14) scale(1,1)"><path fill="none" stroke="#000000" d="M 0 24 L 0 46 L 180.7470703125 46 L 191.7470703125 35 L 191.7470703125 24 L 0 24 L 0 24" stroke-miterlimit="10"/></g><g transform="translate(10,-14) scale(1,1)"><g><path fill="none" stroke="none"/><text fill="#000000" stroke="none" font-family="Arial" font-size="13px" font-style="normal" font-weight="normal" text-decoration="none" x="24.72998046875" y="40">SystemSequenceDiagram</text></g></g><g transform="translate(10,-14) scale(1,1)"><g><path fill="none" stroke="none"/><text fill="#000000" stroke="none" font-family="Arial" font-size="13px" font-style="normal" font-weight="bold" text-decoration="none" x="4.279541015625" y="40">sd</text></g></g><g transform="translate(10,-14) scale(1,1)"><path fill="#ffffff" stroke="none" d="M 280.9981551846591 47.3 C 280.9981551846591 43.82060576 283.8765569068409 41 287.42724609375 41 C 290.9779352806591 41 293.856337002841 43.82060576 293.856337002841 47.3 C 293.856337002841 50.779394239999995 290.9779352806591 53.6 287.42724609375 53.6 C 283.8765569068409 53.6 280.9981551846591 50.779394239999995 280.9981551846591 47.3 Z"/></g><g transform="translate(10,-14) scale(1,1)"><path fill="none" stroke="#000000" d="M 280.9981551846591 47.3 C 280.9981551846591 43.82060576 283.8765569068409 41 287.42724609375 41 C 290.9779352806591 41 293.856337002841 43.82060576 293.856337002841 47.3 C 293.856337002841 50.779394239999995 290.9779352806591 53.6 287.42724609375 53.6 C 283.8765569068409 53.6 280.9981551846591 50.779394239999995 280.9981551846591 47.3 Z" stroke-miterlimit="10"/></g><g transform="translate(10,-14) scale(1,1)"><path fill="none" stroke="#000000" d="M 287.42724609375 53.6 L 287.42724609375 66.4" stroke-miterlimit="10"/></g><g transform="translate(10,-14) scale(1,1)"><path fill="none" stroke="#000000" d="M 280.61997336647727 58.4 L 294.2345188210228 58.4" stroke-miterlimit="10"/></g><g transform="translate(10,-14) scale(1,1)"><path fill="none" stroke="#000000" d="M 287.42724609375 66.4 L 277.97270063920456 79" stroke-miterlimit="10"/></g><g transform="translate(10,-14) scale(1,1)"><path fill="none" stroke="#000000" d="M 287.42724609375 66.4 L 296.8817915482955 79" stroke-miterlimit="10"/></g><g transform="translate(10,-14) scale(1,1)"><g><path fill="none" stroke="none"/><text fill="#000000" stroke="none" font-family="Arial" font-size="13px" font-style="normal" font-weight="bold" text-decoration="none" x="248.41455078125" y="98">User: Actor2</text></g></g><g transform="translate(10,-14) scale(1,1)"><path fill="none" stroke="#000000" d="M 288.5 105 L 288.5 1176" stroke-miterlimit="10" stroke-dasharray="3"/></g><g transform="translate(10,-14) scale(1,1)"><rect fill="#C0C0C0" stroke="none" x="599" y="47" width="168.5380859375" height="39" opacity="0.2"/></g><g transform="translate(10,-14) scale(1,1)"><rect fill="#ffffff" stroke="none" x="592" y="40" width="168.5380859375" height="39"/></g><g transform="translate(10,-14) scale(1,1)"><path fill="none" stroke="#000000" d="M 592 40 L 760.5380859375 40 L 760.5380859375 79 L 592 79 L 592 40 Z Z" stroke-miterlimit="10"/></g><g transform="translate(10,-14) scale(1,1)"><g><path fill="none" stroke="none"/><text fill="#000000" stroke="none" font-family="Arial" font-size="13px" font-style="normal" font-weight="bold" text-decoration="none" x="601.5" y="58">Simulateur1: Simulateur</text></g></g><g transform="translate(10,-14) scale(1,1)"><path fill="none" stroke="#000000" d="M 677.5 80 L 677.5 1184" stroke-miterlimit="10" stroke-dasharray="3"/></g><g transform="translate(10,-14) scale(1,1)"><path fill="none" stroke="#000000" d="M 288 182 L 670 182" stroke-miterlimit="10"/></g><g transform="translate(10,-14) scale(1,1)"><path fill="#000000" stroke="none" d="M 659.8373251423759 186.209517756016 L 670 182 L 659.8373251423758 177.790482243984"/></g><g transform="translate(10,-14) scale(1,1)"><path fill="none" stroke="#000000" d="M 659.8373251423759 186.209517756016 L 670 182 L 659.8373251423758 177.790482243984 L 659.8373251423759 186.209517756016" stroke-miterlimit="10"/></g><g transform="translate(10,-14) scale(1,1)"><g><path fill="none" stroke="none"/><text fill="#000000" stroke="none" font-family="Arial" font-size="13px" font-style="normal" font-weight="normal" text-decoration="none" x="416.6708984375" y="177">1 : lancerSimulateur()</text></g></g><g transform="translate(10,-14) scale(1,1)"><rect fill="#ffffff" stroke="none" x="670" y="182" width="13" height="28"/></g><g transform="translate(10,-14) scale(1,1)"><path fill="none" stroke="#000000" d="M 670 182 L 683 182 L 683 210 L 670 210 L 670 182 Z Z" stroke-miterlimit="10"/></g><g transform="translate(10,-14) scale(1,1)"><path fill="none" stroke="#000000" d="M 288 264 L 670 264" stroke-miterlimit="10"/></g><g transform="translate(10,-14) scale(1,1)"><path fill="#000000" stroke="none" d="M 659.8373251423759 268.209517756016 L 670 264 L 659.8373251423758 259.790482243984"/></g><g transform="translate(10,-14) scale(1,1)"><path fill="none" stroke="#000000" d="M 659.8373251423759 268.209517756016 L 670 264 L 659.8373251423758 259.790482243984 L 659.8373251423759 268.209517756016" stroke-miterlimit="10"/></g><g transform="translate(10,-14) scale(1,1)"><g><path fill="none" stroke="none"/><text fill="#000000" stroke="none" font-family="Arial" font-size="13px" font-style="normal" font-weight="normal" text-decoration="none" x="432.6708984375" y="257">2 : lireCarte()</text></g></g><g transform="translate(10,-14) scale(1,1)"><rect fill="#ffffff" stroke="none" x="670" y="264" width="13" height="28"/></g><g transform="translate(10,-14) scale(1,1)"><path fill="none" stroke="#000000" d="M 670 264 L 683 264 L 683 292 L 670 292 L 670 264 Z Z" stroke-miterlimit="10"/></g><g transform="translate(10,-14) scale(1,1)"><path fill="none" stroke="#000000" d="M 288 360 L 670 360" stroke-miterlimit="10"/></g><g transform="translate(10,-14) scale(1,1)"><path fill="#000000" stroke="none" d="M 659.8373251423759 364.209517756016 L 670 360 L 659.8373251423758 355.790482243984"/></g><g transform="translate(10,-14) scale(1,1)"><path fill="none" stroke="#000000" d="M 659.8373251423759 364.209517756016 L 670 360 L 659.8373251423758 355.790482243984 L 659.8373251423759 364.209517756016" stroke-miterlimit="10"/></g><g transform="translate(10,-14) scale(1,1)"><g><path fill="none" stroke="none"/><text fill="#000000" stroke="none" font-family="Arial" font-size="13px" font-style="normal" font-weight="normal" text-decoration="none" x="434.220458984375" y="355">3 : ajouterFeu()</text></g></g><g transform="translate(10,-14) scale(1,1)"><rect fill="#ffffff" stroke="none" x="670" y="360" width="13" height="28"/></g><g transform="translate(10,-14) scale(1,1)"><path fill="none" stroke="#000000" d="M 670 360 L 683 360 L 683 388 L 670 388 L 670 360 Z Z" stroke-miterlimit="10"/></g><g transform="translate(10,-14) scale(1,1)"><path fill="none" stroke="#000000" d="M 288 437 L 670 437" stroke-miterlimit="10"/></g><g transform="translate(10,-14) scale(1,1)"><path fill="#000000" stroke="none" d="M 659.8373251423759 441.209517756016 L 670 437 L 659.8373251423758 432.790482243984"/></g><g transform="translate(10,-14) scale(1,1)"><path fill="none" stroke="#000000" d="M 659.8373251423759 441.209517756016 L 670 437 L 659.8373251423758 432.790482243984 L 659.8373251423759 441.209517756016" stroke-miterlimit="10"/></g><g transform="translate(10,-14) scale(1,1)"><g><path fill="none" stroke="none"/><text fill="#000000" stroke="none" font-family="Arial" font-size="13px" font-style="normal" font-weight="normal" text-decoration="none" x="428.220458984375" y="432">4 : ajouterRobot()</text></g></g><g transform="translate(10,-14) scale(1,1)"><rect fill="#ffffff" stroke="none" x="670" y="437" width="13" height="28"/></g><g transform="translate(10,-14) scale(1,1)"><path fill="none" stroke="#000000" d="M 670 437 L 683 437 L 683 465 L 670 465 L 670 437 Z Z" stroke-miterlimit="10"/></g><g transform="translate(10,-14) scale(1,1)"><path fill="none" stroke="#000000" d="M 288 523 L 670 523" stroke-miterlimit="10"/></g><g transform="translate(10,-14) scale(1,1)"><path fill="#000000" stroke="none" d="M 659.8373251423759 527.209517756016 L 670 523 L 659.8373251423758 518.790482243984"/></g><g transform="translate(10,-14) scale(1,1)"><path fill="none" stroke="#000000" d="M 659.8373251423759 527.209517756016 L 670 523 L 659.8373251423758 518.790482243984 L 659.8373251423759 527.209517756016" stroke-miterlimit="10"/></g><g transform="translate(10,-14) scale(1,1)"><g><path fill="none" stroke="none"/><text fill="#000000" stroke="none" font-family="Arial" font-size="13px" font-style="normal" font-weight="normal" text-decoration="none" x="407.220458984375" y="518">5 : excecuterSimulation()</text></g></g><g transform="translate(10,-14) scale(1,1)"><rect fill="#ffffff" stroke="none" x="670" y="523" width="13" height="28"/></g><g transform="translate(10,-14) scale(1,1)"><path fill="none" stroke="#000000" d="M 670 523 L 683 523 L 683 551 L 670 551 L 670 523 Z Z" stroke-miterlimit="10"/></g><g transform="translate(10,-14) scale(1,1)"><path fill="none" stroke="#000000" d="M 677 591 L 288 591" stroke-miterlimit="10" stroke-dasharray="3"/></g><g transform="translate(10,-14) scale(1,1)"><path fill="none" stroke="#000000" d="M 298.16267485762415 586.790482243984 L 288 591 L 298.16267485762415 595.209517756016" stroke-miterlimit="10"/></g><g transform="translate(10,-14) scale(1,1)"><g><path fill="none" stroke="none"/><text fill="#000000" stroke="none" font-family="Arial" font-size="13px" font-style="normal" font-weight="normal" text-decoration="none" x="414.5" y="606">6 : Simulation En cours</text></g></g><g transform="translate(10,-14) scale(1,1)"><path fill="none" stroke="#000000" d="M 288 662 L 670 662" stroke-miterlimit="10"/></g><g transform="translate(10,-14) scale(1,1)"><path fill="#000000" stroke="none" d="M 659.8373251423759 666.209517756016 L 670 662 L 659.8373251423758 657.790482243984"/></g><g transform="translate(10,-14) scale(1,1)"><path fill="none" stroke="#000000" d="M 659.8373251423759 666.209517756016 L 670 662 L 659.8373251423758 657.790482243984 L 659.8373251423759 666.209517756016" stroke-miterlimit="10"/></g><g transform="translate(10,-14) scale(1,1)"><g><path fill="none" stroke="none"/><text fill="#000000" stroke="none" font-family="Arial" font-size="13px" font-style="normal" font-weight="normal" text-decoration="none" x="424.450439453125" y="657">7 : accelererSimu()</text></g></g><g transform="translate(10,-14) scale(1,1)"><rect fill="#ffffff" stroke="none" x="670" y="662" width="13" height="28"/></g><g transform="translate(10,-14) scale(1,1)"><path fill="none" stroke="#000000" d="M 670 662 L 683 662 L 683 690 L 670 690 L 670 662 Z Z" stroke-miterlimit="10"/></g><g transform="translate(10,-14) scale(1,1)"><path fill="none" stroke="#000000" d="M 288 722 L 670 722" stroke-miterlimit="10"/></g><g transform="translate(10,-14) scale(1,1)"><path fill="#000000" stroke="none" d="M 659.8373251423759 726.209517756016 L 670 722 L 659.8373251423758 717.790482243984"/></g><g transform="translate(10,-14) scale(1,1)"><path fill="none" stroke="#000000" d="M 659.8373251423759 726.209517756016 L 670 722 L 659.8373251423758 717.790482243984 L 659.8373251423759 726.209517756016" stroke-miterlimit="10"/></g><g transform="translate(10,-14) scale(1,1)"><g><path fill="none" stroke="none"/><text fill="#000000" stroke="none" font-family="Arial" font-size="13px" font-style="normal" font-weight="normal" text-decoration="none" x="431.259521484375" y="717">8 : ralentirSimu()</text></g></g><g transform="translate(10,-14) scale(1,1)"><rect fill="#ffffff" stroke="none" x="670" y="722" width="13" height="28"/></g><g transform="translate(10,-14) scale(1,1)"><path fill="none" stroke="#000000" d="M 670 722 L 683 722 L 683 750 L 670 750 L 670 722 Z Z" stroke-miterlimit="10"/></g><g transform="translate(10,-14) scale(1,1)"><path fill="none" stroke="#000000" d="M 288 782 L 670 782" stroke-miterlimit="10"/></g><g transform="translate(10,-14) scale(1,1)"><path fill="#000000" stroke="none" d="M 659.8373251423759 786.209517756016 L 670 782 L 659.8373251423758 777.790482243984"/></g><g transform="translate(10,-14) scale(1,1)"><path fill="none" stroke="#000000" d="M 659.8373251423759 786.209517756016 L 670 782 L 659.8373251423758 777.790482243984 L 659.8373251423759 786.209517756016" stroke-miterlimit="10"/></g><g transform="translate(10,-14) scale(1,1)"><g><path fill="none" stroke="none"/><text fill="#000000" stroke="none" font-family="Arial" font-size="13px" font-style="normal" font-weight="normal" text-decoration="none" x="417.220458984375" y="777">9 : pauseSimulation()</text></g></g><g transform="translate(10,-14) scale(1,1)"><rect fill="#ffffff" stroke="none" x="670" y="782" width="13" height="28"/></g><g transform="translate(10,-14) scale(1,1)"><path fill="none" stroke="#000000" d="M 670 782 L 683 782 L 683 810 L 670 810 L 670 782 Z Z" stroke-miterlimit="10"/></g><g transform="translate(10,-14) scale(1,1)"><path fill="none" stroke="#000000" d="M 677 848 L 288 848" stroke-miterlimit="10" stroke-dasharray="3"/></g><g transform="translate(10,-14) scale(1,1)"><path fill="none" stroke="#000000" d="M 298.16267485762415 843.790482243984 L 288 848 L 298.16267485762415 852.209517756016" stroke-miterlimit="10"/></g><g transform="translate(10,-14) scale(1,1)"><g><path fill="none" stroke="none"/><text fill="#000000" stroke="none" font-family="Arial" font-size="13px" font-style="normal" font-weight="normal" text-decoration="none" x="408.5" y="863">10 : Simulation En Pause</text></g></g><g transform="translate(10,-14) scale(1,1)"><path fill="none" stroke="#000000" d="M 288 900 L 670 900" stroke-miterlimit="10"/></g><g transform="translate(10,-14) scale(1,1)"><path fill="#000000" stroke="none" d="M 659.8373251423759 904.209517756016 L 670 900 L 659.8373251423758 895.790482243984"/></g><g transform="translate(10,-14) scale(1,1)"><path fill="none" stroke="#000000" d="M 659.8373251423759 904.209517756016 L 670 900 L 659.8373251423758 895.790482243984 L 659.8373251423759 904.209517756016" stroke-miterlimit="10"/></g><g transform="translate(10,-14) scale(1,1)"><g><path fill="none" stroke="none"/><text fill="#000000" stroke="none" font-family="Arial" font-size="13px" font-style="normal" font-weight="normal" text-decoration="none" x="404.029541015625" y="895">11 : reprendreSimulation()</text></g></g><g transform="translate(10,-14) scale(1,1)"><rect fill="#ffffff" stroke="none" x="670" y="900" width="13" height="28"/></g><g transform="translate(10,-14) scale(1,1)"><path fill="none" stroke="#000000" d="M 670 900 L 683 900 L 683 928 L 670 928 L 670 900 Z Z" stroke-miterlimit="10"/></g><g transform="translate(10,-14) scale(1,1)"><path fill="none" stroke="#000000" d="M 677 960 L 288 960" stroke-miterlimit="10" stroke-dasharray="3"/></g><g transform="translate(10,-14) scale(1,1)"><path fill="none" stroke="#000000" d="M 298.16267485762415 955.790482243984 L 288 960 L 298.16267485762415 964.209517756016" stroke-miterlimit="10"/></g><g transform="translate(10,-14) scale(1,1)"><g><path fill="none" stroke="none"/><text fill="#000000" stroke="none" font-family="Arial" font-size="13px" font-style="normal" font-weight="normal" text-decoration="none" x="411.5" y="975">12 : Simulation en cours</text></g></g><g transform="translate(10,-14) scale(1,1)"><path fill="none" stroke="#000000" d="M 288 1024 L 670 1024" stroke-miterlimit="10"/></g><g transform="translate(10,-14) scale(1,1)"><path fill="#000000" stroke="none" d="M 659.8373251423759 1028.2095177560159 L 670 1024 L 659.8373251423758 1019.790482243984"/></g><g transform="translate(10,-14) scale(1,1)"><path fill="none" stroke="#000000" d="M 659.8373251423759 1028.2095177560159 L 670 1024 L 659.8373251423758 1019.790482243984 L 659.8373251423759 1028.2095177560159" stroke-miterlimit="10"/></g><g transform="translate(10,-14) scale(1,1)"><g><path fill="none" stroke="none"/><text fill="#000000" stroke="none" font-family="Arial" font-size="13px" font-style="normal" font-weight="normal" text-decoration="none" x="412.220458984375" y="1019">13 : arreterSimulation()</text></g></g><g transform="translate(10,-14) scale(1,1)"><rect fill="#ffffff" stroke="none" x="670" y="1024" width="13" height="28"/></g><g transform="translate(10,-14) scale(1,1)"><path fill="none" stroke="#000000" d="M 670 1024 L 683 1024 L 683 1052 L 670 1052 L 670 1024 Z Z" stroke-miterlimit="10"/></g><g transform="translate(10,-14) scale(1,1)"><path fill="none" stroke="#000000" d="M 677 1072 L 707 1072 L 707 1092 L 683 1092" stroke-miterlimit="10"/></g><g transform="translate(10,-14) scale(1,1)"><path fill="#000000" stroke="none" d="M 693.1626748576241 1087.7904822439841 L 683 1092 L 693.1626748576241 1096.2095177560159"/></g><g transform="translate(10,-14) scale(1,1)"><path fill="none" stroke="#000000" d="M 693.1626748576241 1087.7904822439841 L 683 1092 L 693.1626748576241 1096.2095177560159 L 693.1626748576241 1087.7904822439841" stroke-miterlimit="10"/></g><g transform="translate(10,-14) scale(1,1)"><g><path fill="none" stroke="none"/><text fill="#000000" stroke="none" font-family="Arial" font-size="13px" font-style="normal" font-weight="normal" text-decoration="none" x="730.029541015625" y="1086">14 : reinitialiserSimulation()</text></g></g><g transform="translate(10,-14) scale(1,1)"><rect fill="#ffffff" stroke="none" x="670" y="1092" width="13" height="28"/></g><g transform="translate(10,-14) scale(1,1)"><path fill="none" stroke="#000000" d="M 670 1092 L 683 1092 L 683 1120 L 670 1120 L 670 1092 Z Z" stroke-miterlimit="10"/></g></g></svg>