<svg version="1.1" xmlns="http://www.w3.org/2000/svg" xmlns:xlink="http://www.w3.org/1999/xlink" width="1772" height="1812"><defs/><g><g transform="translate(2,-22) scale(1,1)"><path fill="none" stroke="#000000" d="M 8 32 L 1760 32 L 1760 1824 L 8 1824 L 8 32" stroke-miterlimit="10"/></g><g transform="translate(2,-22) scale(1,1)"><path fill="#ffffff" stroke="none" d="M 8 32 L 8 54 L 193.1015625 54 L 204.1015625 43 L 204.1015625 32 L 8 32"/></g><g transform="translate(2,-22) scale(1,1)"><path fill="none" stroke="#000000" d="M 8 32 L 8 54 L 193.1015625 54 L 204.1015625 43 L 204.1015625 32 L 8 32 L 8 32" stroke-miterlimit="10"/></g><g transform="translate(2,-22) scale(1,1)"><g><path fill="none" stroke="none"/><text fill="#000000" stroke="none" font-family="Arial" font-size="13px" font-style="normal" font-weight="normal" text-decoration="none" x="32.72998046875" y="48">DetailedSequenceDiagram</text></g></g><g transform="translate(2,-22) scale(1,1)"><g><path fill="none" stroke="none"/><text fill="#000000" stroke="none" font-family="Arial" font-size="13px" font-style="normal" font-weight="bold" text-decoration="none" x="12.279541015625" y="48">sd</text></g></g><g transform="translate(2,-22) scale(1,1)"><path fill="#ffffff" stroke="none" d="M 169.7217879971591 47.3 C 169.7217879971591 43.82060576 172.6001897193409 41 176.15087890625 41 C 179.7015680931591 41 182.57996981534092 43.82060576 182.57996981534092 47.3 C 182.57996981534092 50.779394239999995 179.7015680931591 53.6 176.15087890625 53.6 C 172.6001897193409 53.6 169.7217879971591 50.779394239999995 169.7217879971591 47.3 Z"/></g><g transform="translate(2,-22) scale(1,1)"><path fill="none" stroke="#000000" d="M 169.7217879971591 47.3 C 169.7217879971591 43.82060576 172.6001897193409 41 176.15087890625 41 C 179.7015680931591 41 182.57996981534092 43.82060576 182.57996981534092 47.3 C 182.57996981534092 50.779394239999995 179.7015680931591 53.6 176.15087890625 53.6 C 172.6001897193409 53.6 169.7217879971591 50.779394239999995 169.7217879971591 47.3 Z" stroke-miterlimit="10"/></g><g transform="translate(2,-22) scale(1,1)"><path fill="none" stroke="#000000" d="M 176.15087890625 53.6 L 176.15087890625 66.4" stroke-miterlimit="10"/></g><g transform="translate(2,-22) scale(1,1)"><path fill="none" stroke="#000000" d="M 169.3436061789773 58.4 L 182.95815163352273 58.4" stroke-miterlimit="10"/></g><g transform="translate(2,-22) scale(1,1)"><path fill="none" stroke="#000000" d="M 176.15087890625 66.4 L 166.69633345170456 79" stroke-miterlimit="10"/></g><g transform="translate(2,-22) scale(1,1)"><path fill="none" stroke="#000000" d="M 176.15087890625 66.4 L 185.60542436079547 79" stroke-miterlimit="10"/></g><g transform="translate(2,-22) scale(1,1)"><g><path fill="none" stroke="none"/><text fill="#000000" stroke="none" font-family="Arial" font-size="13px" font-style="normal" font-weight="bold" text-decoration="none" x="137.86181640625" y="98">user: Actor1</text></g></g><g transform="translate(2,-22) scale(1,1)"><path fill="none" stroke="#000000" d="M 177.5 105 L 177.5 1601" stroke-miterlimit="10" stroke-dasharray="3"/></g><g transform="translate(2,-22) scale(1,1)"><rect fill="#C0C0C0" stroke="none" x="655" y="47" width="191.65625" height="39" opacity="0.2"/></g><g transform="translate(2,-22) scale(1,1)"><rect fill="#ffffff" stroke="none" x="648" y="40" width="191.65625" height="39"/></g><g transform="translate(2,-22) scale(1,1)"><path fill="none" stroke="#000000" d="M 648 40 L 839.65625 40 L 839.65625 79 L 648 79 L 648 40 Z Z" stroke-miterlimit="10"/></g><g transform="translate(2,-22) scale(1,1)"><g><path fill="none" stroke="none"/><text fill="#000000" stroke="none" font-family="Arial" font-size="13px" font-style="normal" font-weight="bold" text-decoration="none" x="713.130859375" y="58">Feu1: Feu</text></g></g><g transform="translate(2,-22) scale(1,1)"><path fill="none" stroke="#000000" d="M 744.5 80 L 744.5 1160" stroke-miterlimit="10" stroke-dasharray="3"/></g><g transform="translate(2,-22) scale(1,1)"><rect fill="#C0C0C0" stroke="none" x="311" y="47" width="161.30810546875" height="39" opacity="0.2"/></g><g transform="translate(2,-22) scale(1,1)"><rect fill="#ffffff" stroke="none" x="304" y="40" width="161.30810546875" height="39"/></g><g transform="translate(2,-22) scale(1,1)"><path fill="none" stroke="#000000" d="M 304 40 L 465.30810546875 40 L 465.30810546875 79 L 304 79 L 304 40 Z Z" stroke-miterlimit="10"/></g><g transform="translate(2,-22) scale(1,1)"><g><path fill="none" stroke="none"/><text fill="#000000" stroke="none" font-family="Arial" font-size="13px" font-style="normal" font-weight="bold" text-decoration="none" x="313.5" y="58">Simulteur1: Simulateur</text></g></g><g transform="translate(2,-22) scale(1,1)"><path fill="none" stroke="#000000" d="M 385.5 80 L 385.5 1734" stroke-miterlimit="10" stroke-dasharray="3"/></g><g transform="translate(2,-22) scale(1,1)"><rect fill="#C0C0C0" stroke="none" x="1199" y="47" width="187.29541015625" height="39" opacity="0.2"/></g><g transform="translate(2,-22) scale(1,1)"><rect fill="#ffffff" stroke="none" x="1192" y="40" width="187.29541015625" height="39"/></g><g transform="translate(2,-22) scale(1,1)"><path fill="none" stroke="#000000" d="M 1192 40 L 1379.29541015625 40 L 1379.29541015625 79 L 1192 79 L 1192 40 Z Z" stroke-miterlimit="10"/></g><g transform="translate(2,-22) scale(1,1)"><g><path fill="none" stroke="none"/><text fill="#000000" stroke="none" font-family="Arial" font-size="13px" font-style="normal" font-weight="bold" text-decoration="none" x="1227.852294921875" y="58">manager: Manager</text></g></g><g transform="translate(2,-22) scale(1,1)"><path fill="none" stroke="#000000" d="M 1286.5 80 L 1286.5 1208" stroke-miterlimit="10" stroke-dasharray="3"/></g><g transform="translate(2,-22) scale(1,1)"><rect fill="#C0C0C0" stroke="none" x="863" y="47" width="160.501953125" height="39" opacity="0.2"/></g><g transform="translate(2,-22) scale(1,1)"><rect fill="#ffffff" stroke="none" x="856" y="40" width="160.501953125" height="39"/></g><g transform="translate(2,-22) scale(1,1)"><path fill="none" stroke="#000000" d="M 856 40 L 1016.501953125 40 L 1016.501953125 79 L 856 79 L 856 40 Z Z" stroke-miterlimit="10"/></g><g transform="translate(2,-22) scale(1,1)"><g><path fill="none" stroke="none"/><text fill="#000000" stroke="none" font-family="Arial" font-size="13px" font-style="normal" font-weight="bold" text-decoration="none" x="891.12548828125" y="58">Robot1: Robot</text></g></g><g transform="translate(2,-22) scale(1,1)"><path fill="none" stroke="#000000" d="M 937.5 80 L 937.5 1162" stroke-miterlimit="10" stroke-dasharray="3"/></g><g transform="translate(2,-22) scale(1,1)"><path fill="none" stroke="#000000" d="M 177 133 L 378 133" stroke-miterlimit="10"/></g><g transform="translate(2,-22) scale(1,1)"><path fill="#000000" stroke="none" d="M 367.83732514237585 137.209517756016 L 378 133 L 367.83732514237585 128.790482243984"/></g><g transform="translate(2,-22) scale(1,1)"><path fill="none" stroke="#000000" d="M 367.83732514237585 137.209517756016 L 378 133 L 367.83732514237585 128.790482243984 L 367.83732514237585 137.209517756016" stroke-miterlimit="10"/></g><g transform="translate(2,-22) scale(1,1)"><g><path fill="none" stroke="none"/><text fill="#000000" stroke="none" font-family="Arial" font-size="13px" font-style="normal" font-weight="normal" text-decoration="none" x="214.6708984375" y="128">1 : lancerSimulateur()</text></g></g><g transform="translate(2,-22) scale(1,1)"><rect fill="#ffffff" stroke="none" x="378" y="133" width="13" height="28"/></g><g transform="translate(2,-22) scale(1,1)"><path fill="none" stroke="#000000" d="M 378 133 L 391 133 L 391 161 L 378 161 L 378 133 Z Z" stroke-miterlimit="10"/></g><g transform="translate(2,-22) scale(1,1)"><path fill="none" stroke="#000000" d="M 144 880 L 1575 880 L 1575 1097 L 144 1097 L 144 880" stroke-miterlimit="10"/></g><g transform="translate(2,-22) scale(1,1)"><path fill="#ffffff" stroke="none" d="M 144 880 L 144 902 L 205.5380859375 902 L 216.5380859375 891 L 216.5380859375 880 L 144 880"/></g><g transform="translate(2,-22) scale(1,1)"><path fill="none" stroke="#000000" d="M 144 880 L 144 902 L 205.5380859375 902 L 216.5380859375 891 L 216.5380859375 880 L 144 880 L 144 880" stroke-miterlimit="10"/></g><g transform="translate(2,-22) scale(1,1)"><g><path fill="none" stroke="none"/><text fill="#000000" stroke="none" font-family="Arial" font-size="13px" font-style="normal" font-weight="normal" text-decoration="none" x="175.9599609375" y="896">loop</text></g></g><g transform="translate(2,-22) scale(1,1)"><g><path fill="none" stroke="none"/><text fill="#000000" stroke="none" font-family="Arial" font-size="13px" font-style="normal" font-weight="bold" text-decoration="none" x="148.279541015625" y="894.5">seq</text></g></g></g></svg>