<svg version="1.1" xmlns="http://www.w3.org/2000/svg" xmlns:xlink="http://www.w3.org/1999/xlink" width="1058.2314453125" height="901"><defs/><g><g transform="translate(-38,10) scale(1,1)"><rect fill="#C0C0C0" stroke="none" x="383" y="7" width="163.9970703125" height="248" opacity="0.2"/></g><g transform="translate(-38,10) scale(1,1)"><rect fill="#ffffff" stroke="none" x="376" y="0" width="163.9970703125" height="248"/></g><g transform="translate(-38,10) scale(1,1)"><path fill="none" stroke="#000000" d="M 376 0 L 539.9970703125 0 L 539.9970703125 248 L 376 248 L 376 0 Z Z" stroke-miterlimit="10"/></g><g transform="translate(-38,10) scale(1,1)"><path fill="none" stroke="#000000" d="M 376 25 L 539.9970703125 25" stroke-miterlimit="10"/></g><g transform="translate(-38,10) scale(1,1)"><path fill="none" stroke="#000000" d="M 376 78 L 539.9970703125 78" stroke-miterlimit="10"/></g><g transform="translate(-38,10) scale(1,1)"><g><path fill="none" stroke="none"/><text fill="#000000" stroke="none" font-family="Arial" font-size="13px" font-style="normal" font-weight="bold" text-decoration="none" x="424.40673828125" y="18">Simulateur</text></g></g><g transform="translate(-38,10) scale(1,1)"><g><path fill="none" stroke="none"/><text fill="#000000" stroke="none" font-family="Arial" font-size="13px" font-style="normal" font-weight="normal" text-decoration="none" x="381" y="41">+vitesseSimu</text></g></g><g transform="translate(-38,10) scale(1,1)"><g><path fill="none" stroke="none"/><text fill="#000000" stroke="none" font-family="Arial" font-size="13px" font-style="normal" font-weight="normal" text-decoration="none" x="381" y="56">+listeFeu</text></g></g><g transform="translate(-38,10) scale(1,1)"><g><path fill="none" stroke="none"/><text fill="#000000" stroke="none" font-family="Arial" font-size="13px" font-style="normal" font-weight="normal" text-decoration="none" x="381" y="71">+listeRobot</text></g></g><g transform="translate(-38,10) scale(1,1)"><g><path fill="none" stroke="none"/><text fill="#000000" stroke="none" font-family="Arial" font-size="13px" font-style="normal" font-weight="normal" text-decoration="none" x="381" y="94">+ajouterFeu()</text></g></g><g transform="translate(-38,10) scale(1,1)"><g><path fill="none" stroke="none"/><text fill="#000000" stroke="none" font-family="Arial" font-size="13px" font-style="normal" font-weight="normal" text-decoration="none" x="381" y="109">+ajouterRobot()</text></g></g><g transform="translate(-38,10) scale(1,1)"><g><path fill="none" stroke="none"/><text fill="#000000" stroke="none" font-family="Arial" font-size="13px" font-style="normal" font-weight="normal" text-decoration="none" x="381" y="124">+lireCarte()</text></g></g><g transform="translate(-38,10) scale(1,1)"><g><path fill="none" stroke="none"/><text fill="#000000" stroke="none" font-family="Arial" font-size="13px" font-style="normal" font-weight="normal" text-decoration="none" x="381" y="139">+excecuterSimulation()</text></g></g><g transform="translate(-38,10) scale(1,1)"><g><path fill="none" stroke="none"/><text fill="#000000" stroke="none" font-family="Arial" font-size="13px" font-style="normal" font-weight="normal" text-decoration="none" x="381" y="154">+arreterSimulation()</text></g></g><g transform="translate(-38,10) scale(1,1)"><g><path fill="none" stroke="none"/><text fill="#000000" stroke="none" font-family="Arial" font-size="13px" font-style="normal" font-weight="normal" text-decoration="none" x="381" y="169">+reprendreSimulation()</text></g></g><g transform="translate(-38,10) scale(1,1)"><g><path fill="none" stroke="none"/><text fill="#000000" stroke="none" font-family="Arial" font-size="13px" font-style="normal" font-weight="normal" text-decoration="none" x="381" y="184">+reinitialiserSimulation()</text></g></g><g transform="translate(-38,10) scale(1,1)"><g><path fill="none" stroke="none"/><text fill="#000000" stroke="none" font-family="Arial" font-size="13px" font-style="normal" font-weight="normal" text-decoration="none" x="381" y="199">+pauseSimulation()</text></g></g><g transform="translate(-38,10) scale(1,1)"><g><path fill="none" stroke="none"/><text fill="#000000" stroke="none" font-family="Arial" font-size="13px" font-style="normal" font-weight="normal" text-decoration="none" x="381" y="214">+accelererSimu()</text></g></g><g transform="translate(-38,10) scale(1,1)"><g><path fill="none" stroke="none"/><text fill="#000000" stroke="none" font-family="Arial" font-size="13px" font-style="normal" font-weight="normal" text-decoration="none" x="381" y="229">+ralentirSimu()</text></g></g><g transform="translate(-38,10) scale(1,1)"><rect fill="#C0C0C0" stroke="none" x="55" y="319" width="106.919921875" height="87" opacity="0.2"/></g><g transform="translate(-38,10) scale(1,1)"><rect fill="#ffffff" stroke="none" x="48" y="312" width="106.919921875" height="87"/></g><g transform="translate(-38,10) scale(1,1)"><path fill="none" stroke="#000000" d="M 48 312 L 154.919921875 312 L 154.919921875 399 L 48 399 L 48 312 Z Z" stroke-miterlimit="10"/></g><g transform="translate(-38,10) scale(1,1)"><path fill="none" stroke="#000000" d="M 48 337 L 154.919921875 337" stroke-miterlimit="10"/></g><g transform="translate(-38,10) scale(1,1)"><path fill="none" stroke="#000000" d="M 48 375 L 154.919921875 375" stroke-miterlimit="10"/></g><g transform="translate(-38,10) scale(1,1)"><g><path fill="none" stroke="none"/><text fill="#000000" stroke="none" font-family="Arial" font-size="13px" font-style="normal" font-weight="bold" text-decoration="none" x="84.841796875" y="330">Carte</text></g></g><g transform="translate(-38,10) scale(1,1)"><g><path fill="none" stroke="none"/><text fill="#000000" stroke="none" font-family="Arial" font-size="13px" font-style="normal" font-weight="normal" text-decoration="none" x="53" y="352">+repere</text></g></g><g transform="translate(-38,10) scale(1,1)"><g><path fill="none" stroke="none"/><text fill="#000000" stroke="none" font-family="Arial" font-size="13px" font-style="normal" font-weight="normal" text-decoration="none" x="53" y="368">+taille</text></g></g><g transform="translate(-38,10) scale(1,1)"><g><path fill="none" stroke="none"/><text fill="#000000" stroke="none" font-family="Arial" font-size="13px" font-style="normal" font-weight="normal" text-decoration="none" x="53" y="393">+chargerCarte()</text></g></g><g transform="translate(-38,10) scale(1,1)"><rect fill="#C0C0C0" stroke="none" x="375" y="399" width="197.97607421875" height="160" opacity="0.2"/></g><g transform="translate(-38,10) scale(1,1)"><rect fill="#ffffff" stroke="none" x="368" y="392" width="197.97607421875" height="160"/></g><g transform="translate(-38,10) scale(1,1)"><path fill="none" stroke="#000000" d="M 368 392 L 565.97607421875 392 L 565.97607421875 552 L 368 552 L 368 392 Z Z" stroke-miterlimit="10"/></g><g transform="translate(-38,10) scale(1,1)"><path fill="none" stroke="#000000" d="M 368 417 L 565.97607421875 417" stroke-miterlimit="10"/></g><g transform="translate(-38,10) scale(1,1)"><path fill="none" stroke="#000000" d="M 368 455 L 565.97607421875 455" stroke-miterlimit="10"/></g><g transform="translate(-38,10) scale(1,1)"><g><path fill="none" stroke="none"/><text fill="#000000" stroke="none" font-family="Arial" font-size="13px" font-style="normal" font-weight="bold" text-decoration="none" x="440.258056640625" y="410">Manager</text></g></g><g transform="translate(-38,10) scale(1,1)"><g><path fill="none" stroke="none"/><text fill="#000000" stroke="none" font-family="Arial" font-size="13px" font-style="normal" font-weight="normal" text-decoration="none" x="373" y="433">+listeRobotsDispo</text></g></g><g transform="translate(-38,10) scale(1,1)"><g><path fill="none" stroke="none"/><text fill="#000000" stroke="none" font-family="Arial" font-size="13px" font-style="normal" font-weight="normal" text-decoration="none" x="373" y="448">+listeFeuxActifs</text></g></g><g transform="translate(-38,10) scale(1,1)"><g><path fill="none" stroke="none"/><text fill="#000000" stroke="none" font-family="Arial" font-size="13px" font-style="normal" font-weight="normal" text-decoration="none" x="373" y="471">+affecterRobot()</text></g></g><g transform="translate(-38,10) scale(1,1)"><g><path fill="none" stroke="none"/><text fill="#000000" stroke="none" font-family="Arial" font-size="13px" font-style="normal" font-weight="normal" text-decoration="none" x="373" y="486">+assignerRobot()</text></g></g><g transform="translate(-38,10) scale(1,1)"><g><path fill="none" stroke="none"/><text fill="#000000" stroke="none" font-family="Arial" font-size="13px" font-style="normal" font-weight="normal" text-decoration="none" x="373" y="501">+trouver_feu_le_plus_proche()</text></g></g><g transform="translate(-38,10) scale(1,1)"><g><path fill="none" stroke="none"/><text fill="#000000" stroke="none" font-family="Arial" font-size="13px" font-style="normal" font-weight="normal" text-decoration="none" x="373" y="516">+calculer_distance()</text></g></g><g transform="translate(-38,10) scale(1,1)"><g><path fill="none" stroke="none"/><text fill="#000000" stroke="none" font-family="Arial" font-size="13px" font-style="normal" font-weight="normal" text-decoration="none" x="373" y="531">+trouver_robot_le_plus_proche()</text></g></g><g transform="translate(-38,10) scale(1,1)"><g><path fill="none" stroke="none"/><text fill="#000000" stroke="none" font-family="Arial" font-size="13px" font-style="normal" font-weight="normal" text-decoration="none" x="373" y="546">+affecter_un_robot_a_un_feu()</text></g></g><g transform="translate(-38,10) scale(1,1)"><rect fill="#C0C0C0" stroke="none" x="167" y="663" width="106.90625" height="130" opacity="0.2"/></g><g transform="translate(-38,10) scale(1,1)"><rect fill="#ffffff" stroke="none" x="160" y="656" width="106.90625" height="130"/></g><g transform="translate(-38,10) scale(1,1)"><path fill="none" stroke="#000000" d="M 160 656 L 266.90625 656 L 266.90625 786 L 160 786 L 160 656 Z Z" stroke-miterlimit="10"/></g><g transform="translate(-38,10) scale(1,1)"><path fill="none" stroke="#000000" d="M 160 681 L 266.90625 681" stroke-miterlimit="10"/></g><g transform="translate(-38,10) scale(1,1)"><path fill="none" stroke="#000000" d="M 160 749 L 266.90625 749" stroke-miterlimit="10"/></g><g transform="translate(-38,10) scale(1,1)"><g><path fill="none" stroke="none"/><text fill="#000000" stroke="none" font-family="Arial" font-size="13px" font-style="normal" font-weight="bold" text-decoration="none" x="201.897216796875" y="674">Feu</text></g></g><g transform="translate(-38,10) scale(1,1)"><g><path fill="none" stroke="none"/><text fill="#000000" stroke="none" font-family="Arial" font-size="13px" font-style="normal" font-weight="normal" text-decoration="none" x="165" y="697">+idFeu</text></g></g><g transform="translate(-38,10) scale(1,1)"><g><path fill="none" stroke="none"/><text fill="#000000" stroke="none" font-family="Arial" font-size="13px" font-style="normal" font-weight="normal" text-decoration="none" x="165" y="712">+ampleur</text></g></g><g transform="translate(-38,10) scale(1,1)"><g><path fill="none" stroke="none"/><text fill="#000000" stroke="none" font-family="Arial" font-size="13px" font-style="normal" font-weight="normal" text-decoration="none" x="165" y="727">+coordonnees</text></g></g><g transform="translate(-38,10) scale(1,1)"><g><path fill="none" stroke="none"/><text fill="#000000" stroke="none" font-family="Arial" font-size="13px" font-style="normal" font-weight="normal" text-decoration="none" x="165" y="742">+assigned</text></g></g><g transform="translate(-38,10) scale(1,1)"><g><path fill="none" stroke="none"/><text fill="#000000" stroke="none" font-family="Arial" font-size="13px" font-style="normal" font-weight="normal" text-decoration="none" x="165" y="765">+seDeclencher()</text></g></g><g transform="translate(-38,10) scale(1,1)"><g><path fill="none" stroke="none"/><text fill="#000000" stroke="none" font-family="Arial" font-size="13px" font-style="normal" font-weight="normal" text-decoration="none" x="165" y="780">+eteindre()</text></g></g><g transform="translate(-38,10) scale(1,1)"><rect fill="#C0C0C0" stroke="none" x="823" y="527" width="270.2314453125" height="250" opacity="0.2"/></g><g transform="translate(-38,10) scale(1,1)"><rect fill="#ffffff" stroke="none" x="816" y="520" width="270.2314453125" height="250"/></g><g transform="translate(-38,10) scale(1,1)"><path fill="none" stroke="#000000" d="M 816 520 L 1086.2314453125 520 L 1086.2314453125 770 L 816 770 L 816 520 Z Z" stroke-miterlimit="10"/></g><g transform="translate(-38,10) scale(1,1)"><path fill="none" stroke="#000000" d="M 816 545 L 1086.2314453125 545" stroke-miterlimit="10"/></g><g transform="translate(-38,10) scale(1,1)"><path fill="none" stroke="#000000" d="M 816 673 L 1086.2314453125 673" stroke-miterlimit="10"/></g><g transform="translate(-38,10) scale(1,1)"><g><path fill="none" stroke="none"/><text fill="#000000" stroke="none" font-family="Arial" font-size="13px" font-style="normal" font-weight="bold" text-decoration="none" x="932.345703125" y="538">Robot</text></g></g><g transform="translate(-38,10) scale(1,1)"><g><path fill="none" stroke="none"/><text fill="#000000" stroke="none" font-family="Arial" font-size="13px" font-style="normal" font-weight="normal" text-decoration="none" x="821" y="561">+idRobot</text></g></g><g transform="translate(-38,10) scale(1,1)"><g><path fill="none" stroke="none"/><text fill="#000000" stroke="none" font-family="Arial" font-size="13px" font-style="normal" font-weight="normal" text-decoration="none" x="821" y="576">+TypeTobot</text></g></g><g transform="translate(-38,10) scale(1,1)"><g><path fill="none" stroke="none"/><text fill="#000000" stroke="none" font-family="Arial" font-size="13px" font-style="normal" font-weight="normal" text-decoration="none" x="821" y="590">+nom</text></g></g><g transform="translate(-38,10) scale(1,1)"><g><path fill="none" stroke="none"/><text fill="#000000" stroke="none" font-family="Arial" font-size="13px" font-style="normal" font-weight="normal" text-decoration="none" x="821" y="606">+vitesse</text></g></g><g transform="translate(-38,10) scale(1,1)"><g><path fill="none" stroke="none"/><text fill="#000000" stroke="none" font-family="Arial" font-size="13px" font-style="normal" font-weight="normal" text-decoration="none" x="821" y="621">+coordonnees</text></g></g><g transform="translate(-38,10) scale(1,1)"><g><path fill="none" stroke="none"/><text fill="#000000" stroke="none" font-family="Arial" font-size="13px" font-style="normal" font-weight="normal" text-decoration="none" x="821" y="636">+robotDispo</text></g></g><g transform="translate(-38,10) scale(1,1)"><g><path fill="none" stroke="none"/><text fill="#000000" stroke="none" font-family="Arial" font-size="13px" font-style="normal" font-weight="normal" text-decoration="none" x="821" y="650.5">+etat</text></g></g><g transform="translate(-38,10) scale(1,1)"><g><path fill="none" stroke="none"/><text fill="#000000" stroke="none" font-family="Arial" font-size="13px" font-style="normal" font-weight="normal" text-decoration="none" x="821" y="666">+etatEau</text></g></g><g transform="translate(-38,10) scale(1,1)"><g><path fill="none" stroke="none"/><text fill="#000000" stroke="none" font-family="Arial" font-size="13px" font-style="normal" font-weight="normal" text-decoration="none" x="821" y="689">+eteindreFeu(coordonneesFeu, ampleurFeu)</text></g></g><g transform="translate(-38,10) scale(1,1)"><g><path fill="none" stroke="none"/><text fill="#000000" stroke="none" font-family="Arial" font-size="13px" font-style="normal" font-weight="normal" text-decoration="none" x="821" y="704">+seDeplacer(coordonnees)</text></g></g><g transform="translate(-38,10) scale(1,1)"><g><path fill="none" stroke="none"/><text fill="#000000" stroke="none" font-family="Arial" font-size="13px" font-style="normal" font-weight="normal" text-decoration="none" x="821" y="719">+remplirReservoir()</text></g></g><g transform="translate(-38,10) scale(1,1)"><g><path fill="none" stroke="none"/><text fill="#000000" stroke="none" font-family="Arial" font-size="13px" font-style="normal" font-weight="normal" text-decoration="none" x="821" y="734">+mae()</text></g></g><g transform="translate(-38,10) scale(1,1)"><g><path fill="none" stroke="none"/><text fill="#000000" stroke="none" font-family="Arial" font-size="13px" font-style="normal" font-weight="normal" text-decoration="none" x="821" y="749">+retournerBase()</text></g></g><g transform="translate(-38,10) scale(1,1)"><path fill="none" stroke="#000000" d="M 460 249 L 464 391" stroke-miterlimit="10"/></g><g transform="translate(-38,10) scale(1,1)"><g><path fill="none" stroke="none"/><text fill="#000000" stroke="none" font-family="Arial" font-size="13px" font-style="normal" font-weight="normal" text-decoration="none" x="465.5" y="285">+1</text></g></g><g transform="translate(-38,10) scale(1,1)"><g><path fill="none" stroke="none"/><text fill="#000000" stroke="none" font-family="Arial" font-size="13px" font-style="normal" font-weight="normal" text-decoration="none" x="465.5" y="377">+1</text></g></g><g transform="translate(-38,10) scale(1,1)"><path fill="none" stroke="#000000" d="M 567 508 L 815 596" stroke-miterlimit="10"/></g><g transform="translate(-38,10) scale(1,1)"><path fill="none" stroke="#000000" d="M 804.0147090648375 596.5686678027065 L 815 596 L 806.8301174269033 588.6343351459757" stroke-miterlimit="10"/></g><g transform="translate(-38,10) scale(1,1)"><g><path fill="none" stroke="none"/><text fill="#000000" stroke="none" font-family="Arial" font-size="13px" font-style="normal" font-weight="normal" text-decoration="none" x="708.5" y="561">+0..n</text></g></g><g transform="translate(-38,10) scale(1,1)"><g><path fill="none" stroke="none"/><text fill="#000000" stroke="none" font-family="Arial" font-size="13px" font-style="normal" font-weight="normal" text-decoration="none" x="588.5" y="507">+1</text></g></g><g transform="translate(-38,10) scale(1,1)"><path fill="none" stroke="#000000" d="M 384 553 L 268 667" stroke-miterlimit="10"/></g><g transform="translate(-38,10) scale(1,1)"><path fill="none" stroke="#000000" d="M 272.29772635987734 656.8743124610911 L 268 667 L 278.19889377569206 662.8790091298148" stroke-miterlimit="10"/></g><g transform="translate(-38,10) scale(1,1)"><g><path fill="none" stroke="none"/><text fill="#000000" stroke="none" font-family="Arial" font-size="13px" font-style="normal" font-weight="normal" text-decoration="none" x="303.5" y="639">+0..n</text></g></g><g transform="translate(-38,10) scale(1,1)"><g><path fill="none" stroke="none"/><text fill="#000000" stroke="none" font-family="Arial" font-size="13px" font-style="normal" font-weight="normal" text-decoration="none" x="384.5" y="569">+1</text></g></g><g transform="translate(-38,10) scale(1,1)"><path fill="none" stroke="#000000" d="M 815 659 L 268 715" stroke-miterlimit="10"/></g><g transform="translate(-38,10) scale(1,1)"><path fill="none" stroke="#000000" d="M 277.6811172454651 709.7773599703255 L 268 715 L 278.53854783440954 718.1526194730512" stroke-miterlimit="10"/></g><g transform="translate(-38,10) scale(1,1)"><g><path fill="none" stroke="none"/><text fill="#000000" stroke="none" font-family="Arial" font-size="13px" font-style="normal" font-weight="normal" text-decoration="none" x="658.5" y="688">+1..n</text></g></g><g transform="translate(-38,10) scale(1,1)"><g><path fill="none" stroke="none"/><text fill="#000000" stroke="none" font-family="Arial" font-size="13px" font-style="normal" font-weight="normal" text-decoration="none" x="287.5" y="732">+1</text></g></g><g transform="translate(-38,10) scale(1,1)"><path fill="none" stroke="#000000" d="M 406 249 L 240 655" stroke-miterlimit="10"/></g><g transform="translate(-38,10) scale(1,1)"><path fill="none" stroke="#000000" d="M 239.94970606712735 644.0001149769502 L 240 655 L 247.7425301110841 647.1863435269423" stroke-miterlimit="10"/></g><g transform="translate(-38,10) scale(1,1)"><g><path fill="none" stroke="none"/><text fill="#000000" stroke="none" font-family="Arial" font-size="13px" font-style="normal" font-weight="normal" text-decoration="none" x="284.5" y="564">+0..n</text></g></g><g transform="translate(-38,10) scale(1,1)"><g><path fill="none" stroke="none"/><text fill="#000000" stroke="none" font-family="Arial" font-size="13px" font-style="normal" font-weight="normal" text-decoration="none" x="402.5" y="283">+1</text></g></g><g transform="translate(-38,10) scale(1,1)"><path fill="none" stroke="#000000" d="M 541 213 L 832 519" stroke-miterlimit="10"/></g><g transform="translate(-38,10) scale(1,1)"><path fill="none" stroke="#000000" d="M 821.9462648668427 514.5365473148785 L 832 519 L 828.0470733722458 508.7347980499363" stroke-miterlimit="10"/></g><g transform="translate(-38,10) scale(1,1)"><g><path fill="none" stroke="none"/><text fill="#000000" stroke="none" font-family="Arial" font-size="13px" font-style="normal" font-weight="normal" text-decoration="none" x="760.5" y="435">+0..n</text></g></g><g transform="translate(-38,10) scale(1,1)"><g><path fill="none" stroke="none"/><text fill="#000000" stroke="none" font-family="Arial" font-size="13px" font-style="normal" font-weight="normal" text-decoration="none" x="561.5" y="226">+1</text></g></g><g transform="translate(-38,10) scale(1,1)"><path fill="none" stroke="#000000" d="M 375 177 L 156 319" stroke-miterlimit="10"/></g><g transform="translate(-38,10) scale(1,1)"><path fill="none" stroke="#000000" d="M 162.23688306881056 309.93902380612417 L 156 319 L 166.81722002228298 317.003064600564" stroke-miterlimit="10"/></g><g transform="translate(-38,10) scale(1,1)"><g><path fill="none" stroke="none"/><text fill="#000000" stroke="none" font-family="Arial" font-size="13px" font-style="normal" font-weight="normal" text-decoration="none" x="339.5" y="182">+1</text></g></g><g transform="translate(-38,10) scale(1,1)"><g><path fill="none" stroke="none"/><text fill="#000000" stroke="none" font-family="Arial" font-size="13px" font-style="normal" font-weight="normal" text-decoration="none" x="148.726806640625" y="295">+1</text></g></g><g transform="translate(-38,10) scale(1,1)"><path fill="none" stroke="#000000" d="M 815 705 L 416 880 L 72 872 L 98 400" stroke-miterlimit="10"/></g><g transform="translate(-38,10) scale(1,1)"><path fill="none" stroke="#000000" d="M 101.64418475480026 410.3788206205176 L 98 400 L 93.23789331052913 409.91576219350264" stroke-miterlimit="10"/></g><g transform="translate(-38,10) scale(1,1)"><g><path fill="none" stroke="none"/><text fill="#000000" stroke="none" font-family="Arial" font-size="13px" font-style="normal" font-weight="normal" text-decoration="none" x="782.5" y="734">+0..n</text></g></g><g transform="translate(-38,10) scale(1,1)"><g><path fill="none" stroke="none"/><text fill="#000000" stroke="none" font-family="Arial" font-size="13px" font-style="normal" font-weight="normal" text-decoration="none" x="73.5" y="430">+1</text></g></g><g transform="translate(-38,10) scale(1,1)"><path fill="none" stroke="#000000" d="M 193 655 L 115 400" stroke-miterlimit="10"/></g><g transform="translate(-38,10) scale(1,1)"><path fill="none" stroke="#000000" d="M 121.99803762793736 408.4868998673233 L 115 400 L 113.9472154142776 410.94950430914867" stroke-miterlimit="10"/></g><g transform="translate(-38,10) scale(1,1)"><g><path fill="none" stroke="none"/><text fill="#000000" stroke="none" font-family="Arial" font-size="13px" font-style="normal" font-weight="normal" text-decoration="none" x="177.5" y="591">+0..n</text></g></g><g transform="translate(-38,10) scale(1,1)"><g><path fill="none" stroke="none"/><text fill="#000000" stroke="none" font-family="Arial" font-size="13px" font-style="normal" font-weight="normal" text-decoration="none" x="123.5" y="424">+1</text></g></g></g></svg>