<svg version="1.1" xmlns="http://www.w3.org/2000/svg" xmlns:xlink="http://www.w3.org/1999/xlink" width="1068" height="660"><defs/><g><g transform="translate(-14,-54) scale(1,1)"><rect fill="#C0C0C0" stroke="none" x="239" y="71" width="840" height="640" opacity="0.2"/></g><g transform="translate(-14,-54) scale(1,1)"><rect fill="#ffffff" stroke="none" x="232" y="64" width="840" height="640"/></g><g transform="translate(-14,-54) scale(1,1)"><path fill="none" stroke="#000000" d="M 232 64 L 1072 64 L 1072 704 L 232 704 L 232 64 Z Z" stroke-miterlimit="10"/></g><g transform="translate(-14,-54) scale(1,1)"><g><path fill="none" stroke="none"/><text fill="#000000" stroke="none" font-family="Arial" font-size="13px" font-style="normal" font-weight="bold" text-decoration="none" x="641.155029296875" y="80.5">xxx</text></g></g><g transform="translate(-14,-54) scale(1,1)"><path fill="#ffffff" stroke="none" d="M 62.55044122869318 272.8 C 62.55044122869318 255.23734336 76.22284940905682 241 93.088623046875 241 C 109.95439668469318 241 123.62680486505681 255.23734336 123.62680486505681 272.8 C 123.62680486505681 290.36265664 109.95439668469318 304.6 93.088623046875 304.6 C 76.22284940905682 304.6 62.55044122869318 290.36265664 62.55044122869318 272.8 Z"/></g><g transform="translate(-14,-54) scale(1,1)"><path fill="none" stroke="#000000" d="M 62.55044122869318 272.8 C 62.55044122869318 255.23734336 76.22284940905682 241 93.088623046875 241 C 109.95439668469318 241 123.62680486505681 255.23734336 123.62680486505681 272.8 C 123.62680486505681 290.36265664 109.95439668469318 304.6 93.088623046875 304.6 C 76.22284940905682 304.6 62.55044122869318 290.36265664 62.55044122869318 272.8 Z" stroke-miterlimit="10"/></g><g transform="translate(-14,-54) scale(1,1)"><path fill="none" stroke="#000000" d="M 93.088623046875 304.6 L 93.088623046875 365.4" stroke-miterlimit="10"/></g><g transform="translate(-14,-54) scale(1,1)"><path fill="none" stroke="#000000" d="M 60.75407759232955 327.4 L 125.42316850142045 327.4" stroke-miterlimit="10"/></g><g transform="translate(-14,-54) scale(1,1)"><path fill="none" stroke="#000000" d="M 93.088623046875 365.4 L 48.17953213778409 429" stroke-miterlimit="10"/></g><g transform="translate(-14,-54) scale(1,1)"><path fill="none" stroke="#000000" d="M 93.088623046875 365.4 L 137.9977139559659 429" stroke-miterlimit="10"/></g><g transform="translate(-14,-54) scale(1,1)"><g><path fill="none" stroke="none"/><text fill="#000000" stroke="none" font-family="Arial" font-size="13px" font-style="normal" font-weight="bold" text-decoration="none" x="78.635009765625" y="448">User</text></g></g><g transform="translate(-14,-54) scale(1,1)"><path fill="#C0C0C0" stroke="none" d="M 583 345 C 583 330.6405952 618.817216 319 663 319 C 707.182784 319 743 330.6405952 743 345 C 743 359.3594048 707.182784 371 663 371 C 618.817216 371 583 359.3594048 583 345 Z" opacity="0.2"/></g><g transform="translate(-14,-54) scale(1,1)"><path fill="#ffffff" stroke="none" d="M 576 338 C 576 323.6405952 611.817216 312 656 312 C 700.182784 312 736 323.6405952 736 338 C 736 352.3594048 700.182784 364 656 364 C 611.817216 364 576 352.3594048 576 338 Z"/></g><g transform="translate(-14,-54) scale(1,1)"><path fill="none" stroke="#000000" d="M 576 338 C 576 323.6405952 611.817216 312 656 312 C 700.182784 312 736 323.6405952 736 338 C 736 352.3594048 700.182784 364 656 364 C 611.817216 364 576 352.3594048 576 338 Z" stroke-miterlimit="10"/></g><g transform="translate(-14,-54) scale(1,1)"><g><path fill="none" stroke="none"/><text fill="#000000" stroke="none" font-family="Arial" font-size="13px" font-style="normal" font-weight="normal" text-decoration="none" x="635.766845703125" y="335">«UC3»</text></g></g><g transform="translate(-14,-54) scale(1,1)"><g><path fill="none" stroke="none"/><text fill="#000000" stroke="none" font-family="Arial" font-size="13px" font-style="normal" font-weight="bold" text-decoration="none" x="619.88818359375" y="350">Ajouter Feu</text></g></g><g transform="translate(-14,-54) scale(1,1)"><path fill="#C0C0C0" stroke="none" d="M 615 497 C 615 482.6405952 645.220776 471 682.5 471 C 719.779224 471 750 482.6405952 750 497 C 750 511.3594048 719.779224 523 682.5 523 C 645.220776 523 615 511.3594048 615 497 Z" opacity="0.2"/></g><g transform="translate(-14,-54) scale(1,1)"><path fill="#ffffff" stroke="none" d="M 608 490 C 608 475.6405952 638.220776 464 675.5 464 C 712.779224 464 743 475.6405952 743 490 C 743 504.3594048 712.779224 516 675.5 516 C 638.220776 516 608 504.3594048 608 490 Z"/></g><g transform="translate(-14,-54) scale(1,1)"><path fill="none" stroke="#000000" d="M 608 490 C 608 475.6405952 638.220776 464 675.5 464 C 712.779224 464 743 475.6405952 743 490 C 743 504.3594048 712.779224 516 675.5 516 C 638.220776 516 608 504.3594048 608 490 Z" stroke-miterlimit="10"/></g><g transform="translate(-14,-54) scale(1,1)"><g><path fill="none" stroke="none"/><text fill="#000000" stroke="none" font-family="Arial" font-size="13px" font-style="normal" font-weight="normal" text-decoration="none" x="655.266845703125" y="487">«UC4»</text></g></g><g transform="translate(-14,-54) scale(1,1)"><g><path fill="none" stroke="none"/><text fill="#000000" stroke="none" font-family="Arial" font-size="13px" font-style="normal" font-weight="bold" text-decoration="none" x="632.174072265625" y="502">Ajouter Robot</text></g></g><g transform="translate(-14,-54) scale(1,1)"><path fill="#C0C0C0" stroke="none" d="M 599 177 C 599 162.6405952 629.8923488 151 668 151 C 706.1076512 151 737 162.6405952 737 177 C 737 191.3594048 706.1076512 203 668 203 C 629.8923488 203 599 191.3594048 599 177 Z" opacity="0.2"/></g><g transform="translate(-14,-54) scale(1,1)"><path fill="#ffffff" stroke="none" d="M 592 170 C 592 155.6405952 622.8923488 144 661 144 C 699.1076512 144 730 155.6405952 730 170 C 730 184.3594048 699.1076512 196 661 196 C 622.8923488 196 592 184.3594048 592 170 Z"/></g><g transform="translate(-14,-54) scale(1,1)"><path fill="none" stroke="#000000" d="M 592 170 C 592 155.6405952 622.8923488 144 661 144 C 699.1076512 144 730 155.6405952 730 170 C 730 184.3594048 699.1076512 196 661 196 C 622.8923488 196 592 184.3594048 592 170 Z" stroke-miterlimit="10"/></g><g transform="translate(-14,-54) scale(1,1)"><g><path fill="none" stroke="none"/><text fill="#000000" stroke="none" font-family="Arial" font-size="13px" font-style="normal" font-weight="normal" text-decoration="none" x="640.766845703125" y="167">«UC1»</text></g></g><g transform="translate(-14,-54) scale(1,1)"><g><path fill="none" stroke="none"/><text fill="#000000" stroke="none" font-family="Arial" font-size="13px" font-style="normal" font-weight="bold" text-decoration="none" x="616.563232421875" y="182">Exécuter simu</text></g></g><g transform="translate(-14,-54) scale(1,1)"><path fill="#C0C0C0" stroke="none" d="M 295 643 C 295 623.1177472 450.1333168 607 641.5 607 C 832.8666832 607 988 623.1177472 988 643 C 988 662.8822528 832.8666832 679 641.5 679 C 450.1333168 679 295 662.8822528 295 643 Z" opacity="0.2"/></g><g transform="translate(-14,-54) scale(1,1)"><path fill="#ffffff" stroke="none" d="M 288 636 C 288 616.1177472 443.1333168 600 634.5 600 C 825.8666832 600 981 616.1177472 981 636 C 981 655.8822528 825.8666832 672 634.5 672 C 443.1333168 672 288 655.8822528 288 636 Z"/></g><g transform="translate(-14,-54) scale(1,1)"><path fill="none" stroke="#000000" d="M 288 636 C 288 616.1177472 443.1333168 600 634.5 600 C 825.8666832 600 981 616.1177472 981 636 C 981 655.8822528 825.8666832 672 634.5 672 C 443.1333168 672 288 655.8822528 288 636 Z" stroke-miterlimit="10"/></g><g transform="translate(-14,-54) scale(1,1)"><g><path fill="none" stroke="none"/><text fill="#000000" stroke="none" font-family="Arial" font-size="13px" font-style="normal" font-weight="normal" text-decoration="none" x="614.266845703125" y="633">«UC6»</text></g></g><g transform="translate(-14,-54) scale(1,1)"><g><path fill="none" stroke="none"/><text fill="#000000" stroke="none" font-family="Arial" font-size="13px" font-style="normal" font-weight="bold" text-decoration="none" x="393.89208984375" y="648">Contrôler simu (lancer,arreter,stopper,reprendre,accelerer,ralentir,reinitialiser)</text></g></g><g transform="translate(-14,-54) scale(1,1)"><path fill="#C0C0C0" stroke="none" d="M 559 553 C 559 538.6405952 589.4446336 527 627 527 C 664.5553664 527 695 538.6405952 695 553 C 695 567.3594048 664.5553664 579 627 579 C 589.4446336 579 559 567.3594048 559 553 Z" opacity="0.2"/></g><g transform="translate(-14,-54) scale(1,1)"><path fill="#ffffff" stroke="none" d="M 552 546 C 552 531.6405952 582.4446336 520 620 520 C 657.5553664 520 688 531.6405952 688 546 C 688 560.3594048 657.5553664 572 620 572 C 582.4446336 572 552 560.3594048 552 546 Z"/></g><g transform="translate(-14,-54) scale(1,1)"><path fill="none" stroke="#000000" d="M 552 546 C 552 531.6405952 582.4446336 520 620 520 C 657.5553664 520 688 531.6405952 688 546 C 688 560.3594048 657.5553664 572 620 572 C 582.4446336 572 552 560.3594048 552 546 Z" stroke-miterlimit="10"/></g><g transform="translate(-14,-54) scale(1,1)"><g><path fill="none" stroke="none"/><text fill="#000000" stroke="none" font-family="Arial" font-size="13px" font-style="normal" font-weight="normal" text-decoration="none" x="599.766845703125" y="543">«UC5»</text></g></g><g transform="translate(-14,-54) scale(1,1)"><g><path fill="none" stroke="none"/><text fill="#000000" stroke="none" font-family="Arial" font-size="13px" font-style="normal" font-weight="bold" text-decoration="none" x="589.404296875" y="558">Visualiser</text></g></g><g transform="translate(-14,-54) scale(1,1)"><path fill="#C0C0C0" stroke="none" d="M 607 265 C 607 250.6405952 635.8776304 239 671.5 239 C 707.1223696 239 736 250.6405952 736 265 C 736 279.3594048 707.1223696 291 671.5 291 C 635.8776304 291 607 279.3594048 607 265 Z" opacity="0.2"/></g><g transform="translate(-14,-54) scale(1,1)"><path fill="#ffffff" stroke="none" d="M 600 258 C 600 243.6405952 628.8776304 232 664.5 232 C 700.1223696 232 729 243.6405952 729 258 C 729 272.3594048 700.1223696 284 664.5 284 C 628.8776304 284 600 272.3594048 600 258 Z"/></g><g transform="translate(-14,-54) scale(1,1)"><path fill="none" stroke="#000000" d="M 600 258 C 600 243.6405952 628.8776304 232 664.5 232 C 700.1223696 232 729 243.6405952 729 258 C 729 272.3594048 700.1223696 284 664.5 284 C 628.8776304 284 600 272.3594048 600 258 Z" stroke-miterlimit="10"/></g><g transform="translate(-14,-54) scale(1,1)"><g><path fill="none" stroke="none"/><text fill="#000000" stroke="none" font-family="Arial" font-size="13px" font-style="normal" font-weight="normal" text-decoration="none" x="644.266845703125" y="255">«UC2»</text></g></g><g transform="translate(-14,-54) scale(1,1)"><g><path fill="none" stroke="none"/><text fill="#000000" stroke="none" font-family="Arial" font-size="13px" font-style="normal" font-weight="bold" text-decoration="none" x="623.325927734375" y="270">Ajouter Carte</text></g></g><g transform="translate(-14,-54) scale(1,1)"><path fill="none" stroke="#000000" d="M 163 336 L 599 268" stroke-miterlimit="10"/></g><g transform="translate(-14,-54) scale(1,1)"><path fill="none" stroke="#000000" d="M 589.6074044152881 273.72530769322054 L 599 268 L 588.3100280748516 265.40683586336314" stroke-miterlimit="10"/></g><g transform="translate(-14,-54) scale(1,1)"><path fill="none" stroke="#000000" d="M 163 373 L 551 520" stroke-miterlimit="10"/></g><g transform="translate(-14,-54) scale(1,1)"><path fill="none" stroke="#000000" d="M 540.0051305387832 520.3359248886312 L 551 520 L 542.9879184789922 512.4629880124331" stroke-miterlimit="10"/></g><g transform="translate(-14,-54) scale(1,1)"><path fill="none" stroke="#000000" d="M 163 346 L 575 339" stroke-miterlimit="10"/></g><g transform="translate(-14,-54) scale(1,1)"><path fill="none" stroke="#000000" d="M 564.9103022665497 343.3815521961523 L 575 339 L 564.7672810425327 334.9637315825768" stroke-miterlimit="10"/></g><g transform="translate(-14,-54) scale(1,1)"><path fill="none" stroke="#000000" d="M 163 364 L 607 473" stroke-miterlimit="10"/></g><g transform="translate(-14,-54) scale(1,1)"><path fill="none" stroke="#000000" d="M 596.1267682865109 474.66518230376624 L 607 473 L 598.1340024230743 466.4889258208842" stroke-miterlimit="10"/></g><g transform="translate(-14,-54) scale(1,1)"><path fill="none" stroke="#000000" d="M 163 325 L 591 192" stroke-miterlimit="10"/></g><g transform="translate(-14,-54) scale(1,1)"><path fill="none" stroke="#000000" d="M 582.5442758311704 199.03567543173148 L 591 192 L 580.0459262923727 190.9958739083825" stroke-miterlimit="10"/></g><g transform="translate(-14,-54) scale(1,1)"><path fill="none" stroke="#000000" d="M 163 384 L 565 599" stroke-miterlimit="10"/></g><g transform="translate(-14,-54) scale(1,1)"><path fill="none" stroke="#000000" d="M 554.0532322361843 597.9191320501163 L 565 599 L 558.0237553390616 590.4951772252017" stroke-miterlimit="10"/></g><g transform="translate(-14,-54) scale(1,1)"><path fill="#C0C0C0" stroke="none" d="M 583 416 C 583 406.6111584 649.037992 399 730.5 399 C 811.962008 399 878 406.6111584 878 416 C 878 425.3888416 811.962008 433 730.5 433 C 649.037992 433 583 425.3888416 583 416 Z" opacity="0.2"/></g><g transform="translate(-14,-54) scale(1,1)"><path fill="#ffffff" stroke="none" d="M 576 409 C 576 399.6111584 642.037992 392 723.5 392 C 804.962008 392 871 399.6111584 871 409 C 871 418.3888416 804.962008 426 723.5 426 C 642.037992 426 576 418.3888416 576 409 Z"/></g><g transform="translate(-14,-54) scale(1,1)"><path fill="none" stroke="#000000" d="M 576 409 C 576 399.6111584 642.037992 392 723.5 392 C 804.962008 392 871 399.6111584 871 409 C 871 418.3888416 804.962008 426 723.5 426 C 642.037992 426 576 418.3888416 576 409 Z" stroke-miterlimit="10"/></g><g transform="translate(-14,-54) scale(1,1)"><g><path fill="none" stroke="none"/><text fill="#000000" stroke="none" font-family="Arial" font-size="13px" font-style="normal" font-weight="bold" text-decoration="none" x="636.102294921875" y="414.5">Ajouter Feu pendant la simu</text></g></g><g transform="translate(-14,-54) scale(1,1)"><path fill="none" stroke="#000000" d="M 163 354 L 575 394" stroke-miterlimit="10"/></g><g transform="translate(-14,-54) scale(1,1)"><path fill="none" stroke="#000000" d="M 564.4781072538507 397.2077676098074 L 575 394 L 565.2916640589149 388.8281325176456" stroke-miterlimit="10"/></g></g></svg>