<svg version="1.1" xmlns="http://www.w3.org/2000/svg" xmlns:xlink="http://www.w3.org/1999/xlink" width="673" height="635"><defs/><g><g transform="translate(-34,-214) scale(1,1)"><path fill="#C0C0C0" stroke="none" d="M 377 231 L 423.08447265625 231 Q 433.08447265625 231 433.08447265625 241 L 433.08447265625 260 Q 433.08447265625 270 423.08447265625 270 L 377 270 Q 367 270 367 260 L 367 241 Q 367 231 377 231 Z" opacity="0.2"/></g><g transform="translate(-34,-214) scale(1,1)"><path fill="#ffffff" stroke="none" d="M 370 224 L 416.08447265625 224 Q 426.08447265625 224 426.08447265625 234 L 426.08447265625 253 Q 426.08447265625 263 416.08447265625 263 L 370 263 Q 360 263 360 253 L 360 234 Q 360 224 370 224 Z"/></g><g transform="translate(-34,-214) scale(1,1)"><path fill="none" stroke="#000000" d="M 370 224 L 416.08447265625 224 Q 426.08447265625 224 426.08447265625 234 L 426.08447265625 253 Q 426.08447265625 263 416.08447265625 263 L 370 263 Q 360 263 360 253 L 360 234 Q 360 224 370 224 Z" stroke-miterlimit="10"/></g><g transform="translate(-34,-214) scale(1,1)"><g><path fill="none" stroke="none"/><text fill="#000000" stroke="none" font-family="Arial" font-size="13px" font-style="normal" font-weight="bold" text-decoration="none" x="364.5" y="242">A la base</text></g></g><g transform="translate(-34,-214) scale(1,1)"><path fill="#C0C0C0" stroke="none" d="M 111 248.5 C 111 243.2532944 115.2532944 239 120.5 239 C 125.7467056 239 130 243.2532944 130 248.5 C 130 253.7467056 125.7467056 258 120.5 258 C 115.2532944 258 111 253.7467056 111 248.5 Z" opacity="0.2"/></g><g transform="translate(-34,-214) scale(1,1)"><path fill="#000000" stroke="none" d="M 104 241.5 C 104 236.2532944 108.2532944 232 113.5 232 C 118.7467056 232 123 236.2532944 123 241.5 C 123 246.7467056 118.7467056 251 113.5 251 C 108.2532944 251 104 246.7467056 104 241.5 Z"/></g><g transform="translate(-34,-214) scale(1,1)"><path fill="none" stroke="#000000" d="M 124 241 L 359 243" stroke-miterlimit="10"/></g><g transform="translate(-34,-214) scale(1,1)"><path fill="none" stroke="#000000" d="M 348.80186878289715 247.1228775968676 L 359 243 L 348.8735175542092 238.70414696770354" stroke-miterlimit="10"/></g><g transform="translate(-34,-214) scale(1,1)"><path fill="#C0C0C0" stroke="none" d="M 679 251.5 C 679 244.59644 684.59644 239 691.5 239 C 698.40356 239 704 244.59644 704 251.5 C 704 258.40356 698.40356 264 691.5 264 C 684.59644 264 679 258.40356 679 251.5 Z" opacity="0.2"/></g><g transform="translate(-34,-214) scale(1,1)"><path fill="none" stroke="#000000" d="M 672 244.5 C 672 237.59644 677.59644 232 684.5 232 C 691.40356 232 697 237.59644 697 244.5 C 697 251.40356 691.40356 257 684.5 257 C 677.59644 257 672 251.40356 672 244.5 Z" stroke-miterlimit="10"/></g><g transform="translate(-34,-214) scale(1,1)"><path fill="#000000" stroke="none" d="M 677 244.5 C 677 240.357864 680.357864 237 684.5 237 C 688.642136 237 692 240.357864 692 244.5 C 692 248.642136 688.642136 252 684.5 252 C 680.357864 252 677 248.642136 677 244.5 Z"/></g><g transform="translate(-34,-214) scale(1,1)"><path fill="none" stroke="#000000" d="M 427 243 L 671 244" stroke-miterlimit="10"/></g><g transform="translate(-34,-214) scale(1,1)"><path fill="none" stroke="#000000" d="M 660.8201585132255 248.16783244674542 L 671 244 L 660.8546624673546 239.7488676392406" stroke-miterlimit="10"/></g><g transform="translate(-34,-214) scale(1,1)"><path fill="#C0C0C0" stroke="none" d="M 401 367 L 522.919921875 367 Q 532.919921875 367 532.919921875 377 L 532.919921875 396 Q 532.919921875 406 522.919921875 406 L 401 406 Q 391 406 391 396 L 391 377 Q 391 367 401 367 Z" opacity="0.2"/></g><g transform="translate(-34,-214) scale(1,1)"><path fill="#ffffff" stroke="none" d="M 394 360 L 515.919921875 360 Q 525.919921875 360 525.919921875 370 L 525.919921875 389 Q 525.919921875 399 515.919921875 399 L 394 399 Q 384 399 384 389 L 384 370 Q 384 360 394 360 Z"/></g><g transform="translate(-34,-214) scale(1,1)"><path fill="none" stroke="#000000" d="M 394 360 L 515.919921875 360 Q 525.919921875 360 525.919921875 370 L 525.919921875 389 Q 525.919921875 399 515.919921875 399 L 394 399 Q 384 399 384 389 L 384 370 Q 384 360 394 360 Z" stroke-miterlimit="10"/></g><g transform="translate(-34,-214) scale(1,1)"><g><path fill="none" stroke="none"/><text fill="#000000" stroke="none" font-family="Arial" font-size="13px" font-style="normal" font-weight="bold" text-decoration="none" x="388.5" y="378">en attente de mission</text></g></g><g transform="translate(-34,-214) scale(1,1)"><path fill="none" stroke="#000000" d="M 402 264 L 445 359" stroke-miterlimit="10"/></g><g transform="translate(-34,-214) scale(1,1)"><path fill="none" stroke="#000000" d="M 436.97438187407795 351.4774037927806 L 445 359 L 444.6443097901999 348.0057522096938" stroke-miterlimit="10"/></g><g transform="translate(-34,-214) scale(1,1)"><g><path fill="none" stroke="none"/><text fill="#000000" stroke="none" font-family="Arial" font-size="13px" font-style="normal" font-weight="normal" text-decoration="none" x="432.5" y="298">réservoir plein</text></g></g><g transform="translate(-34,-214) scale(1,1)"><path fill="#C0C0C0" stroke="none" d="M 361 551 L 522.66259765625 551 Q 532.66259765625 551 532.66259765625 561 L 532.66259765625 580 Q 532.66259765625 590 522.66259765625 590 L 361 590 Q 351 590 351 580 L 351 561 Q 351 551 361 551 Z" opacity="0.2"/></g><g transform="translate(-34,-214) scale(1,1)"><path fill="#ffffff" stroke="none" d="M 354 544 L 515.66259765625 544 Q 525.66259765625 544 525.66259765625 554 L 525.66259765625 573 Q 525.66259765625 583 515.66259765625 583 L 354 583 Q 344 583 344 573 L 344 554 Q 344 544 354 544 Z"/></g><g transform="translate(-34,-214) scale(1,1)"><path fill="none" stroke="#000000" d="M 354 544 L 515.66259765625 544 Q 525.66259765625 544 525.66259765625 554 L 525.66259765625 573 Q 525.66259765625 583 515.66259765625 583 L 354 583 Q 344 583 344 573 L 344 554 Q 344 544 354 544 Z" stroke-miterlimit="10"/></g><g transform="translate(-34,-214) scale(1,1)"><g><path fill="none" stroke="none"/><text fill="#000000" stroke="none" font-family="Arial" font-size="13px" font-style="normal" font-weight="bold" text-decoration="none" x="348.5" y="562">En déplacement vers un feu</text></g></g><g transform="translate(-34,-214) scale(1,1)"><path fill="#C0C0C0" stroke="none" d="M 393 679 L 486.72998046875 679 Q 496.72998046875 679 496.72998046875 689 L 496.72998046875 708 Q 496.72998046875 718 486.72998046875 718 L 393 718 Q 383 718 383 708 L 383 689 Q 383 679 393 679 Z" opacity="0.2"/></g><g transform="translate(-34,-214) scale(1,1)"><path fill="#ffffff" stroke="none" d="M 386 672 L 479.72998046875 672 Q 489.72998046875 672 489.72998046875 682 L 489.72998046875 701 Q 489.72998046875 711 479.72998046875 711 L 386 711 Q 376 711 376 701 L 376 682 Q 376 672 386 672 Z"/></g><g transform="translate(-34,-214) scale(1,1)"><path fill="none" stroke="#000000" d="M 386 672 L 479.72998046875 672 Q 489.72998046875 672 489.72998046875 682 L 489.72998046875 701 Q 489.72998046875 711 479.72998046875 711 L 386 711 Q 376 711 376 701 L 376 682 Q 376 672 386 672 Z" stroke-miterlimit="10"/></g><g transform="translate(-34,-214) scale(1,1)"><g><path fill="none" stroke="none"/><text fill="#000000" stroke="none" font-family="Arial" font-size="13px" font-style="normal" font-weight="bold" text-decoration="none" x="380.5" y="690">Extinction de feu</text></g></g><g transform="translate(-34,-214) scale(1,1)"><path fill="#C0C0C0" stroke="none" d="M 393 807 L 482.42626953125 807 Q 492.42626953125 807 492.42626953125 817 L 492.42626953125 836 Q 492.42626953125 846 482.42626953125 846 L 393 846 Q 383 846 383 836 L 383 817 Q 383 807 393 807 Z" opacity="0.2"/></g><g transform="translate(-34,-214) scale(1,1)"><path fill="#ffffff" stroke="none" d="M 386 800 L 475.42626953125 800 Q 485.42626953125 800 485.42626953125 810 L 485.42626953125 829 Q 485.42626953125 839 475.42626953125 839 L 386 839 Q 376 839 376 829 L 376 810 Q 376 800 386 800 Z"/></g><g transform="translate(-34,-214) scale(1,1)"><path fill="none" stroke="#000000" d="M 386 800 L 475.42626953125 800 Q 485.42626953125 800 485.42626953125 810 L 485.42626953125 829 Q 485.42626953125 839 475.42626953125 839 L 386 839 Q 376 839 376 829 L 376 810 Q 376 800 386 800 Z" stroke-miterlimit="10"/></g><g transform="translate(-34,-214) scale(1,1)"><g><path fill="none" stroke="none"/><text fill="#000000" stroke="none" font-family="Arial" font-size="13px" font-style="normal" font-weight="bold" text-decoration="none" x="380.5" y="818">Retour à la base</text></g></g><g transform="translate(-34,-214) scale(1,1)"><path fill="none" stroke="#000000" d="M 455 400 L 456 462 L 438 543" stroke-miterlimit="10"/></g><g transform="translate(-34,-214) scale(1,1)"><path fill="none" stroke="#000000" d="M 436.09531694648916 532.1661556931222 L 438 543 L 444.31387047256396 533.9925009211388" stroke-miterlimit="10"/></g><g transform="translate(-34,-214) scale(1,1)"><g><path fill="none" stroke="none"/><text fill="#000000" stroke="none" font-family="Arial" font-size="13px" font-style="normal" font-weight="normal" text-decoration="none" x="456.5" y="477">mission reçue</text></g></g><g transform="translate(-34,-214) scale(1,1)"><path fill="none" stroke="#000000" d="M 434 584 L 432 671" stroke-miterlimit="10"/></g><g transform="translate(-34,-214) scale(1,1)"><path fill="none" stroke="#000000" d="M 428.025157110015 660.7432644569564 L 432 671 L 436.4419688936638 660.9367543830172" stroke-miterlimit="10"/></g><g transform="translate(-34,-214) scale(1,1)"><g><path fill="none" stroke="none"/><text fill="#000000" stroke="none" font-family="Arial" font-size="13px" font-style="normal" font-weight="normal" text-decoration="none" x="377.5" y="632">arrivé à proximité du feu</text></g></g><g transform="translate(-34,-214) scale(1,1)"><path fill="none" stroke="#000000" d="M 432 712 L 430 799" stroke-miterlimit="10"/></g><g transform="translate(-34,-214) scale(1,1)"><path fill="none" stroke="#000000" d="M 426.025157110015 788.7432644569564 L 430 799 L 434.4419688936638 788.9367543830172" stroke-miterlimit="10"/></g><g transform="translate(-34,-214) scale(1,1)"><g><path fill="none" stroke="none"/><text fill="#000000" stroke="none" font-family="Arial" font-size="13px" font-style="normal" font-weight="normal" text-decoration="none" x="418.5" y="760">feu éteint</text></g></g><g transform="translate(-34,-214) scale(1,1)"><path fill="none" stroke="#000000" d="M 375 820 L 168 824 L 120 808 L 104 585 L 128 376 L 216 320 L 359 258" stroke-miterlimit="10"/></g><g transform="translate(-34,-214) scale(1,1)"><path fill="none" stroke="#000000" d="M 351.35046709981907 265.9047230444241 L 359 258 L 348.0014801452586 258.1804466814863" stroke-miterlimit="10"/></g><g transform="translate(-34,-214) scale(1,1)"><g><path fill="none" stroke="none"/><text fill="#000000" stroke="none" font-family="Arial" font-size="13px" font-style="normal" font-weight="normal" text-decoration="none" x="43.5" y="588">retour à la base</text></g></g><g transform="translate(-34,-214) scale(1,1)"><path fill="none" stroke="#000000" d="M 375 806 L 248 776 L 224 648 L 280 560 L 343 561" stroke-miterlimit="10"/></g><g transform="translate(-34,-214) scale(1,1)"><path fill="none" stroke="#000000" d="M 332.7717958305513 565.0476955750245 L 343 561 L 332.9054144831438 556.6297204617009" stroke-miterlimit="10"/></g><g transform="translate(-34,-214) scale(1,1)"><g><path fill="none" stroke="none"/><text fill="#000000" stroke="none" font-family="Arial" font-size="13px" font-style="normal" font-weight="normal" text-decoration="none" x="129.5" y="645">reception de nouvelle mission</text></g></g></g></svg>